<?xml version="1.0" standalone="no"?>
<!DOCTYPE svg PUBLIC "-//W3C//DTD SVG 1.1//EN" "http://www.w3.org/Graphics/SVG/1.1/DTD/svg11.dtd" >
<svg xmlns="http://www.w3.org/2000/svg" xmlns:xlink="http://www.w3.org/1999/xlink" version="1.1">
<metadata>
Created by FontForge 20201107 at Thu Mar  8 17:18:09 2007
 By Unknown
COPYRIGHT 1990 The FONT Company ALL Rights Reserved
</metadata>
<defs>
<font id="Din17-Normal" horiz-adv-x="500" >
  <font-face
    font-family="Din17"
    font-weight="500"
    font-stretch="normal"
    units-per-em="1000"
    panose-1="0 0 0 0 0 0 0 0 0 0"
    ascent="800"
    descent="-200"
    x-height="464"
    cap-height="667"
    bbox="-134 -250 873 869"
    underline-thickness="20"
    underline-position="-130"
    stemh="73"
    stemv="75"
    unicode-range="U+0020-FB02"
  />
<missing-glyph horiz-adv-x="0"
 />
    <glyph glyph-name=".notdef" horiz-adv-x="0"
 />
    <glyph glyph-name="space" unicode=" " horiz-adv-x="280"
 />
    <glyph glyph-name="exclam" unicode="!" horiz-adv-x="243"
d="M165 38c0 -25 -19 -42 -44 -42s-43 17 -43 41s19 43 44 43c24 0 43 -19 43 -42zM159 618v-364v-3c0 -38 -12 -54 -39 -54c-26 0 -38 14 -38 47v7v367v4c0 27 15 43 39 43s38 -16 38 -43v-4z" />
    <glyph glyph-name="quotedbl" unicode="&#x22;" horiz-adv-x="385"
d="M283 392h-46l-16 274h78zM147 392h-46l-16 274h78z" />
    <glyph glyph-name="numbersign" unicode="#" horiz-adv-x="568"
d="M364 403h-129l-20 -127h130zM503 276l-1 -57h-108l-35 -219h-57l33 219h-129l-33 -219h-56l33 219h-109l1 57h117l19 127h-108l1 57h116l32 206h56l-31 -206h129l31 206h58l-32 -206h100l-1 -57h-107l-20 -127h101z" />
    <glyph glyph-name="dollar" unicode="$" horiz-adv-x="591"
d="M249 402v178v3c0 7 -2 10 -7 10c-1 0 -3 0 -6 -1c-12 -5 -23 -10 -33 -17c-32 -22 -52 -55 -52 -88c0 -42 31 -77 83 -98l5 -1c1 -1 3 -1 4 -1c4 -1 6 3 6 11v4zM324 265v-186v-5v0c0 -10 1 -12 6 -12c3 0 6 0 13 2c14 2 27 7 39 13c42 21 71 61 71 100
c0 45 -42 82 -111 98c-3 2 -5 1 -6 2c-2 1 -4 1 -5 1c-3 -3 -6 -3 -6 -8zM324 714v-24v-3l1 -4c0 -7 1 -7 7 -8c91 -16 162 -53 162 -86c0 -20 -18 -37 -37 -37c-8 0 -11 1 -22 6l-7 5l-4 2c-34 19 -75 33 -95 33c-3 -1 -5 -1 -5 -5v-4v-3v-217v-3v-3c1 -5 1 -5 8 -7
c87 -23 129 -44 162 -82c23 -26 36 -60 36 -94c0 -99 -82 -180 -196 -193c-8 -1 -10 -3 -10 -10v0v-2l-1 -30c0 -27 -15 -42 -38 -42c-22 0 -37 16 -37 40v4v25v3v1c0 10 -3 13 -13 15h-4c-54 10 -112 35 -146 62l-7 7c-16 12 -17 14 -17 30c0 20 17 38 37 38
c7 0 14 -3 23 -9l5 -3c37 -26 86 -49 109 -52h5h3c3 -1 5 3 5 9v5v208l1 4v5l-1 5c-1 3 -6 6 -15 9c-15 4 -47 18 -65 28c-60 33 -91 84 -91 151c0 85 52 148 150 179c6 2 10 3 13 4c6 1 9 6 9 15v5v24c0 26 15 44 39 44c22 0 36 -16 36 -42v-3z" />
    <glyph glyph-name="percent" unicode="%" horiz-adv-x="661"
d="M424 237v-120v-3c0 -46 31 -78 74 -78c45 0 72 33 72 87v4v121v2c0 53 -27 84 -73 84c-47 0 -73 -33 -73 -94v-3zM69 538v-120v-2c0 -46 30 -79 73 -79c45 0 73 33 73 87v4v121v3c0 52 -27 84 -73 84c-48 0 -73 -33 -73 -94v-4zM539 658l-394 -658h-51l394 658h51z
M612 258v-141v-3c0 -69 -49 -119 -115 -119c-64 0 -114 50 -114 113v4v142v3c0 68 49 118 115 118c64 0 114 -51 114 -115v-2zM256 559v-141v-3c0 -68 -49 -119 -115 -119c-63 0 -113 50 -113 114v3v142v4c0 67 49 117 114 117c63 0 114 -50 114 -113v-4z" />
    <glyph glyph-name="ampersand" unicode="&#x26;" horiz-adv-x="533"
d="M267 89l64 57l3 3l3 2c1 2 2 2 2 4c0 3 -2 6 -6 11l-96 118c-3 6 -5 5 -7 6c-1 -1 -3 -1 -7 -4l-80 -70c0 -1 -1 -1 -4 -3c-20 -17 -31 -40 -31 -68c0 -50 38 -89 87 -89c22 0 47 10 67 29zM229 416l2 -2c3 -5 7 -8 9 -8c1 2 4 1 7 4l3 3l46 40c25 21 37 42 37 64
c0 43 -39 80 -83 80c-43 0 -82 -37 -82 -80c0 -18 7 -35 19 -51zM295 335l97 -119c2 -3 6 -5 8 -5c3 0 7 3 12 8c2 3 3 2 4 4l33 28c1 2 2 1 3 3c10 9 19 13 30 13c22 0 37 -16 37 -38c0 -13 -2 -17 -16 -30l-44 -40c-7 -6 -9 -9 -9 -10c1 -2 1 -2 5 -6c0 -3 1 -2 3 -4
l57 -72l2 -2c6 -8 9 -16 9 -25c0 -20 -19 -38 -40 -38c-11 0 -22 7 -33 20l-54 65c-4 5 -8 8 -11 8c-1 0 -3 0 -5 -2l-4 -3l-5 -5v0l-65 -59c0 -1 -1 -1 -2 -2c-29 -26 -74 -45 -112 -45c-89 0 -165 76 -165 167c0 48 19 88 57 120c1 3 2 2 3 3l79 71c2 3 4 3 4 4
c3 5 5 4 5 8c0 2 0 3 -5 9l-2 3l-29 37c0 2 -2 2 -4 5c-27 28 -43 69 -43 108c0 86 70 154 157 154c89 0 156 -67 156 -155c0 -42 -16 -77 -49 -106l-58 -51l-3 -2c-5 -5 -7 -8 -7 -11c0 -2 0 -2 1 -3l2 -2z" />
    <glyph glyph-name="quoteright" unicode="&#x2019;" horiz-adv-x="244"
d="M77 557l6 10c9 16 15 37 15 53c0 8 0 9 -3 24c-1 5 -2 9 -2 13c0 19 18 34 40 34c25 0 40 -24 40 -65c0 -68 -32 -128 -68 -128c-21 0 -36 15 -36 35c0 7 3 15 8 24z" />
    <glyph glyph-name="parenleft" unicode="(" horiz-adv-x="245"
d="M144 694l4 9c8 16 16 21 32 21c21 0 38 -14 38 -33c0 -6 -2 -13 -5 -22c-42 -122 -62 -235 -62 -349c0 -115 20 -217 68 -348c3 -11 4 -13 4 -18c0 -19 -16 -34 -37 -34c-15 0 -25 7 -34 23c-46 87 -80 249 -80 381c0 127 30 281 72 370z" />
    <glyph glyph-name="parenright" unicode=")" horiz-adv-x="245"
d="M97 703l4 -9c42 -89 72 -243 72 -370c0 -131 -35 -298 -80 -381c-9 -16 -19 -23 -34 -23c-21 0 -37 15 -37 34c0 5 1 7 4 18c48 131 68 233 68 348c0 114 -20 227 -62 349c-3 9 -5 16 -5 22c0 19 17 33 38 33c16 0 24 -5 32 -21z" />
    <glyph glyph-name="asterisk" unicode="*" horiz-adv-x="386"
d="M213 707l24 23c6 6 12 8 19 8c20 0 37 -18 37 -40c0 -13 -6 -23 -18 -27l-34 -14l30 -11c17 -6 24 -14 24 -30c0 -21 -16 -39 -36 -39c-6 0 -14 3 -18 6l-28 23l4 -31c1 -3 1 -6 1 -9c0 -21 -14 -34 -35 -34s-34 13 -34 34v9l5 31l-28 -23c-4 -3 -12 -6 -18 -6
c-20 0 -36 18 -36 39c0 16 6 24 23 30l31 11l-35 14c-12 5 -18 14 -18 27c0 22 17 40 37 40c8 0 14 -2 19 -8l25 -23l-3 33c-1 6 -1 10 -1 13c0 17 13 28 33 28c21 0 34 -10 34 -28c0 -3 0 -7 -1 -13z" />
    <glyph glyph-name="plus" unicode="+"
d="M9 372h209v196h63v-195h209v-62h-208v-196h-63v195h-210v62z" />
    <glyph glyph-name="comma" unicode="," horiz-adv-x="260"
d="M85 -64l6 11c10 16 15 36 15 52c0 7 0 8 -3 24c-1 5 -1 9 -1 12c0 19 18 35 40 35c25 0 40 -25 40 -65c0 -67 -32 -127 -69 -127c-20 0 -35 15 -35 34c0 7 2 15 7 24z" />
    <glyph glyph-name="hyphen" unicode="-" horiz-adv-x="333"
d="M245 232h-158h-7c-25 0 -40 14 -40 35s15 35 39 35h7h159h8c24 -1 39 -14 39 -35s-16 -35 -39 -35h-8z" />
    <glyph glyph-name="period" unicode="." horiz-adv-x="241"
d="M163 42v-2c0 -26 -18 -43 -43 -43c-23 0 -42 17 -42 38c0 26 19 46 43 46c23 0 41 -17 42 -39z" />
    <glyph glyph-name="slash" unicode="/" horiz-adv-x="176"
d="M310 658l-392 -658h-52l393 658h51z" />
    <glyph glyph-name="zero" unicode="0" horiz-adv-x="484"
d="M109 434v-218v-5c0 -83 56 -142 133 -142c49 0 100 31 118 73c9 22 14 51 14 85v7v221v4c0 75 -18 109 -71 137c-20 10 -41 15 -62 15c-55 0 -108 -37 -122 -87c-7 -22 -10 -50 -10 -83v-7zM450 473v-257v-5c0 -125 -89 -217 -209 -217c-116 0 -207 91 -207 207v6v258v6
c0 123 89 214 209 214c114 0 207 -91 207 -205v-7z" />
    <glyph glyph-name="one" unicode="1" horiz-adv-x="524"
d="M322 611v-562v-3c0 -32 -15 -50 -40 -50c-23 0 -36 17 -36 49v4v475v3v5c0 5 -1 5 -4 5s-4 -1 -9 -5c-1 -2 -2 -2 -3 -3l-53 -50l-4 -4c-11 -11 -19 -15 -31 -15c-20 0 -36 16 -36 37c0 11 6 22 20 35l115 110l4 4c17 16 28 22 41 22c24 0 36 -17 36 -51v-6z" />
    <glyph glyph-name="two" unicode="2" horiz-adv-x="489"
d="M170 91l-3 -4c-3 -6 -6 -6 -6 -7c0 -3 2 -3 8 -3h2h216h5c29 -1 47 -16 47 -40s-16 -37 -45 -37h-6h-305h-3c-30 0 -47 13 -47 37c0 10 5 21 16 34l4 4l256 285l4 6l39 49c9 11 13 29 13 51c0 80 -67 145 -149 145c-36 0 -77 -19 -105 -49l-4 -5c-9 -8 -21 -14 -29 -14
c-21 0 -38 18 -38 38c0 13 6 24 23 41c40 39 102 65 159 65c121 0 221 -100 221 -222c0 -50 -16 -88 -52 -129z" />
    <glyph glyph-name="three" unicode="3" horiz-adv-x="466"
d="M85 132l4 -4c33 -38 71 -57 114 -57c77 0 141 63 141 139c0 56 -36 90 -99 96c-40 3 -53 13 -53 38c0 24 16 37 47 39c59 3 101 45 101 101c0 70 -65 132 -138 132c-40 0 -85 -20 -107 -49l-5 -6c-10 -13 -20 -20 -32 -20c-14 0 -28 9 -35 22c-2 5 -3 9 -3 14
c0 10 3 19 13 31c42 53 102 82 169 82c119 0 212 -92 212 -209c0 -46 -12 -78 -47 -119c-2 -4 -3 -4 -4 -5c-1 -3 -2 -3 -3 -4c-1 -3 -2 -3 -2 -4c0 -2 1 -2 4 -5c31 -21 55 -79 55 -132c0 -121 -94 -214 -216 -214c-67 0 -130 30 -168 81c-8 10 -11 18 -11 27
c0 21 18 38 39 38c10 0 16 -3 24 -12z" />
    <glyph glyph-name="four" unicode="4" horiz-adv-x="431"
d="M110 192l-1 -3c-1 -5 -2 -5 -2 -6c0 -4 2 -4 6 -4h1h4l131 -2h3c5 0 10 4 10 9v5l1 4v30c0 30 14 48 39 48c23 0 37 -17 37 -43v-2v-33v-3c0 -12 1 -15 7 -15h3h22h5c20 0 35 -16 35 -37c0 -23 -15 -38 -36 -38h-4l-22 -1h-3c-7 0 -8 -2 -8 -10v-3v-42v-5
c0 -28 -15 -44 -39 -44c-25 0 -38 13 -38 41v4v44v2c0 10 -2 13 -10 13h-7h-4h-177h-5c-29 0 -48 14 -48 34c0 8 4 21 11 40l182 451l2 5c12 30 21 39 41 39s37 -16 37 -35c0 -8 -3 -17 -9 -30c0 -1 0 -1 -1 -2z" />
    <glyph glyph-name="five" unicode="5" horiz-adv-x="460"
d="M83 671h286h11c26 0 42 -14 42 -38c0 -28 -15 -38 -56 -38h-5h-236h-4c-11 0 -14 -1 -14 -6v-4v-3v-136v-3v-7v-1c0 -6 1 -6 4 -6c1 0 2 0 5 1l7 2s2 0 5 2c24 9 50 13 77 13c130 0 233 -101 233 -228c0 -129 -104 -230 -235 -230c-63 0 -126 27 -168 73
c-8 9 -13 19 -13 29c0 20 18 37 39 37c13 0 20 -4 30 -15c27 -30 72 -51 115 -51c85 0 156 71 156 155c0 85 -70 155 -155 155c-40 0 -78 -15 -107 -42c-14 -13 -17 -15 -28 -15c-28 0 -40 15 -40 46v5v251v8c0 32 13 46 43 46h8z" />
    <glyph glyph-name="six" unicode="6" horiz-adv-x="456"
d="M364 224c0 74 -19 114 -67 143c-21 12 -45 19 -70 19c-58 0 -109 -38 -122 -90c-5 -19 -7 -40 -7 -66c0 -66 12 -100 47 -129c24 -20 55 -31 86 -31c55 0 109 36 124 85c6 18 9 41 9 69zM100 470v-43v-3c0 -7 1 -10 4 -10c1 1 2 0 4 2l4 3c39 28 75 40 115 40
c74 0 149 -42 181 -101c20 -38 31 -85 31 -138c0 -88 -26 -144 -86 -185c-36 -25 -80 -37 -125 -37c-84 0 -164 50 -189 120c-12 33 -16 61 -16 113v4l1 223v11c0 124 94 221 214 221c49 0 103 -21 142 -55c11 -9 16 -19 16 -31c0 -20 -18 -38 -37 -38c-11 0 -18 4 -32 15
c-29 23 -58 34 -90 34c-77 0 -137 -61 -137 -140v-5z" />
    <glyph glyph-name="seven" unicode="7" horiz-adv-x="525"
d="M209 35l-2 -6c-11 -23 -25 -34 -41 -34c-20 0 -38 16 -38 35c0 9 1 12 9 29l2 5l236 519l2 4c0 2 1 2 1 4c0 5 -2 6 -11 6h-6l-211 -2h-3c-6 0 -9 -3 -9 -9v-4v-43v-5c0 -28 -15 -45 -37 -45s-38 19 -38 46l1 2v82v6c0 30 14 45 43 45h5l316 1h2c28 0 45 -14 45 -36
c0 -9 -2 -18 -11 -36z" />
    <glyph glyph-name="eight" unicode="8" horiz-adv-x="475"
d="M364 192c0 69 -58 127 -127 127c-67 0 -125 -58 -125 -126s59 -125 127 -125c66 0 125 58 125 124zM335 509c0 57 -47 104 -103 104c-57 0 -105 -47 -105 -103c0 -58 48 -107 105 -107c56 0 103 49 103 106zM119 351l4 2c3 4 4 3 4 6s-1 3 -6 7c-41 27 -70 85 -70 140
c0 100 82 181 182 181c98 0 176 -79 176 -179c0 -51 -23 -100 -64 -137c-2 -3 -3 -3 -3 -5c0 -3 1 -3 4 -5c53 -33 90 -101 90 -167c0 -109 -90 -196 -200 -196s-197 85 -197 193c0 61 35 130 80 160z" />
    <glyph glyph-name="nine" unicode="9" horiz-adv-x="456"
d="M98 463c0 -75 19 -114 67 -143c21 -13 45 -20 70 -20c58 0 109 38 122 91c4 18 6 40 6 65c0 67 -12 100 -47 130c-24 20 -54 31 -86 31c-55 0 -108 -37 -123 -85c-6 -18 -9 -42 -9 -69zM362 217v43v3c0 6 -2 9 -4 9c-1 0 -2 0 -4 -1l-3 -3c-41 -28 -77 -41 -117 -41
c-74 0 -149 42 -181 102c-20 37 -30 85 -30 137c0 88 26 145 85 185c37 25 81 39 125 39c85 0 164 -51 190 -122c12 -34 16 -60 16 -113v-3l-1 -223v-11c0 -125 -94 -221 -214 -221c-50 0 -103 20 -143 54c-10 9 -15 19 -15 31c0 20 17 38 37 38c10 0 18 -3 32 -14
c29 -24 58 -34 90 -34c77 0 137 60 137 140v5z" />
    <glyph glyph-name="colon" unicode=":" horiz-adv-x="241"
d="M163 38v-2c0 -26 -18 -43 -43 -43c-23 0 -42 17 -42 39c0 25 19 46 43 46c23 0 41 -17 42 -40zM163 239v-2c0 -26 -18 -45 -43 -45c-23 0 -42 18 -42 40c0 25 19 46 43 46c23 0 41 -17 42 -39z" />
    <glyph glyph-name="semicolon" unicode=";" horiz-adv-x="260"
d="M85 -64l6 11c10 16 15 36 15 52c0 7 0 8 -3 24c-1 5 -1 9 -1 12c0 19 18 35 40 35c25 0 40 -25 40 -65c0 -67 -32 -127 -69 -127c-20 0 -35 15 -35 34c0 7 2 15 7 24zM178 239v-2c0 -26 -18 -45 -42 -45s-43 18 -43 40c0 25 20 46 44 46c22 0 40 -17 41 -39z" />
    <glyph glyph-name="less" unicode="&#x3c;"
d="M490 578v-67l-400 -173l400 -171v-67l-481 203v69z" />
    <glyph glyph-name="equal" unicode="="
d="M9 299h481v-62h-481v62zM9 446h481v-62h-481v62z" />
    <glyph glyph-name="greater" unicode="&#x3e;"
d="M9 100v67l400 173l-400 171v67l481 -203v-68z" />
    <glyph glyph-name="question" unicode="?" horiz-adv-x="472"
d="M272 40v-2c0 -24 -18 -41 -43 -41c-26 0 -43 15 -43 39c0 25 19 45 43 45c23 0 42 -18 43 -41zM366 363l-54 -45c-29 -25 -39 -44 -40 -80v-6v-4c-4 -22 -16 -32 -37 -32c-28 0 -37 13 -37 56c0 51 9 75 35 94c2 3 3 2 3 3l70 59c42 36 54 54 54 81
c0 62 -69 116 -146 116c-41 0 -79 -15 -109 -43l-5 -5c-16 -14 -24 -19 -35 -19c-19 0 -37 16 -37 34c0 11 6 22 18 36c41 45 104 72 169 72c118 0 221 -88 221 -187c0 -47 -23 -91 -70 -130z" />
    <glyph glyph-name="at" unicode="@" horiz-adv-x="701"
d="M326 196c67 0 112 63 112 156c0 59 -33 95 -88 95c-68 0 -120 -61 -120 -142c0 -65 39 -109 96 -109zM582 132h57c-44 -54 -62 -72 -98 -95c-49 -32 -109 -47 -178 -47c-204 0 -354 144 -354 341s151 346 351 346c184 0 320 -121 320 -286c0 -114 -60 -205 -161 -243
c-22 -9 -44 -14 -59 -14c-31 0 -49 19 -49 50v7c-27 -35 -61 -53 -104 -53c-86 0 -144 66 -144 162c0 120 78 209 182 209c55 0 92 -23 115 -71l12 59h56l-49 -263c-3 -22 -5 -29 -5 -34c0 -12 7 -18 19 -18c18 0 51 19 81 46c41 37 65 94 65 153c0 146 -117 252 -276 252
c-169 0 -299 -131 -299 -301c0 -169 132 -300 302 -300c47 0 91 10 129 31c32 17 48 30 87 69z" />
    <glyph glyph-name="A" unicode="A" horiz-adv-x="560"
d="M172 249l-1 -3c-1 -6 -2 -6 -2 -7c0 -5 4 -7 14 -7h196h3v0c5 3 7 2 7 6c0 2 0 2 -1 4c0 1 0 1 -1 3l-103 261v1c-1 9 -4 8 -6 9c-2 0 -3 0 -4 -3l-2 -4l-1 -3zM313 634l229 -570c5 -13 7 -22 7 -29c0 -20 -18 -36 -39 -36c-16 0 -28 9 -36 30l-1 4l-46 113l-1 4
c-1 4 -1 4 -2 4c-1 4 -3 3 -5 4h-8h-3h-253h-6h-1c-10 0 -12 -2 -15 -10l-1 -3l-45 -117c-8 -22 -20 -30 -39 -30s-37 16 -37 34c0 3 0 6 1 9c1 1 2 5 4 11c0 4 1 3 1 4l223 582c10 23 20 33 35 33c18 0 27 -9 37 -33z" />
    <glyph glyph-name="B" unicode="B" horiz-adv-x="574"
d="M143 284v-195v-3v-6c0 -3 1 -3 3 -4c2 -2 4 -1 5 -2h3l157 -2h2c93 0 151 45 151 117c0 63 -49 109 -115 109h-4l-181 1h-5h-1c-11 0 -15 -3 -15 -11v-4zM145 579v-190v-4c0 -8 2 -11 10 -11h4h138h5c85 0 140 44 140 113c0 66 -53 109 -135 109h-4l-139 1h-3h-3
c-12 0 -13 -2 -13 -15v-3zM134 671h166h5c126 0 212 -75 212 -186c0 -48 -18 -89 -56 -131c-3 -4 -4 -4 -4 -6c0 -3 1 -3 6 -7c53 -43 76 -89 76 -152c0 -83 -56 -158 -134 -179c-29 -8 -63 -10 -102 -10h-5h-165h-4c-54 0 -62 5 -62 47v1l4 571v5c-1 39 9 47 59 47h4z" />
    <glyph glyph-name="C" unicode="C" horiz-adv-x="527"
d="M110 250v-5c0 -102 69 -175 163 -175c57 0 103 24 137 71l6 9c13 17 21 22 35 22c20 0 37 -15 37 -34c0 -12 -5 -25 -19 -43c-45 -63 -119 -100 -196 -100c-139 0 -239 106 -239 254v2l1 186v4c0 137 105 242 242 242c78 0 151 -37 191 -97c11 -17 22 -37 31 -61
c6 -14 8 -21 8 -29c0 -20 -18 -36 -40 -36c-18 0 -24 6 -35 34c-28 73 -86 116 -158 116c-92 0 -164 -76 -164 -172v-3v-185z" />
    <glyph glyph-name="D" unicode="D" horiz-adv-x="581"
d="M145 580v-4v-486v-4v-2c0 -9 3 -11 10 -11h3h180h7c86 0 126 42 126 133v6l1 247v2c0 93 -42 136 -132 136h-4h-172h-6h-1c-9 0 -13 -3 -12 -10v-7zM127 671h223h7c77 0 145 -42 170 -105c13 -32 20 -72 20 -117v-4l-1 -228v-3c0 -144 -70 -215 -212 -215h-4h-197h-5
c-50 0 -61 8 -61 46v3l1 562v6c0 45 9 55 54 55h5z" />
    <glyph glyph-name="E" unicode="E" horiz-adv-x="587"
d="M141 675l358 -2h4c27 0 43 -14 43 -37c0 -24 -15 -36 -42 -36h-5h-334h-6c-11 0 -15 -3 -15 -11v0v-3v-198v-3c0 -9 3 -11 13 -11h4l267 -1h5c27 0 44 -13 44 -34c0 -23 -16 -39 -39 -39h-4l-278 1h-4c-6 0 -10 -3 -10 -7v-4v-2l-1 -201v-5c0 -4 4 -7 10 -7h5h333h7
c31 0 48 -13 48 -37c0 -22 -17 -38 -38 -38h-7h-379h-6c-36 0 -47 10 -47 46v1l3 570v5c0 44 11 53 65 53h6z" />
    <glyph glyph-name="F" unicode="F" horiz-adv-x="573"
d="M116 666h380h5c26 0 42 -14 42 -36c0 -24 -16 -37 -42 -37h-6l-339 -1h-4c-6 0 -9 -3 -9 -9v-2l-1 -208v-1c0 -10 3 -14 13 -14h3h264h5c30 0 45 -13 45 -37c0 -23 -16 -37 -43 -37h-4l-266 -1h-4c-10 0 -13 -2 -13 -10v-3l-2 -218v-4c0 -33 -13 -51 -37 -51
s-36 17 -36 51v3l3 557v7c0 38 9 51 40 51h6z" />
    <glyph glyph-name="G" unicode="G" horiz-adv-x="532"
d="M503 325v-86v-3c0 -135 -102 -238 -234 -238c-134 0 -234 104 -234 245v3l-1 187v2c0 55 7 91 23 127c33 71 120 122 207 122c90 0 175 -53 211 -130c3 -7 4 -12 4 -17c0 -20 -18 -38 -39 -38c-13 0 -20 5 -30 21l-3 6l-8 11c-25 43 -81 74 -136 74
c-61 0 -123 -39 -144 -90c-7 -16 -10 -37 -10 -62v-5v-207v-7c0 -98 67 -168 159 -168c93 0 161 70 161 167v2v49v4c0 7 -4 9 -14 9h-4h-70h-4c-25 0 -42 16 -42 38c0 24 17 37 46 37h7h107h2c38 0 46 -9 46 -48v-5z" />
    <glyph glyph-name="H" unicode="H" horiz-adv-x="617"
d="M549 616v-570v-1c0 -32 -12 -46 -36 -46c-25 0 -39 15 -39 41v2v240v2c0 10 -1 10 -16 10h-4h-296h-5c-8 0 -11 -3 -11 -12h1v-5l-2 -234v-7c0 -22 -16 -38 -38 -38c-24 0 -36 14 -36 43v7v567v5c0 29 14 47 38 47c26 0 38 -15 38 -47v-3v-233v-3c0 -9 2 -11 12 -11h4
h297h6c10 0 12 2 12 13v5v225v2c0 35 13 53 37 53c23 0 38 -20 38 -49v-3z" />
    <glyph glyph-name="I" unicode="I" horiz-adv-x="210"
d="M143 617l-2 -574v-7c0 -22 -16 -38 -38 -38c-24 0 -36 14 -36 43v7v567v5c0 29 14 47 38 47c26 0 38 -15 38 -47v-3z" />
    <glyph glyph-name="J" unicode="J" horiz-adv-x="396"
d="M64 110l6 -3c1 -2 3 -2 7 -4c37 -22 59 -30 87 -30c61 0 88 37 88 119v5v428v8c0 29 15 47 38 47c26 0 38 -15 38 -45v-7l2 -439v-3c0 -46 -3 -65 -12 -92c-20 -56 -84 -95 -156 -95c-48 0 -90 14 -140 50c-13 8 -18 17 -18 29c0 20 19 39 38 39c5 0 13 -2 17 -4z" />
    <glyph glyph-name="K" unicode="K" horiz-adv-x="564"
d="M144 614v-257v-3c0 -6 0 -6 3 -6c1 0 2 0 6 3l3 2l2 2l317 300l5 4c10 10 19 14 30 14c21 0 37 -16 37 -38c0 -12 -7 -23 -20 -35l-232 -221c-1 -2 -2 -2 -3 -3c-4 -5 -5 -5 -5 -6c-1 -3 1 -5 6 -11l228 -286c0 -2 1 -2 3 -3c12 -14 15 -20 15 -32c0 -20 -18 -37 -39 -37
c-13 0 -23 6 -32 17l-3 4l-228 284c-4 5 -7 8 -9 8c-1 0 -2 0 -4 -1l-3 -3l-2 -2l-70 -67l-2 -2l-2 -3c-1 -3 -2 -3 -2 -7v-4v-2l-1 -170v-4c0 -32 -15 -49 -39 -49c-25 0 -36 15 -36 46v7l1 565v6c0 33 13 50 38 50c27 0 38 -16 38 -56v-4z" />
    <glyph glyph-name="L" unicode="L" horiz-adv-x="477"
d="M141 618l1 -537v-3v0c0 -7 2 -8 9 -8h4h266h6c31 0 46 -11 46 -35s-18 -39 -45 -39h-4h-294h-5c-48 0 -58 15 -58 88v5l1 523v3c0 34 11 51 35 51c23 0 38 -16 38 -40v-8z" />
    <glyph glyph-name="M" unicode="M" horiz-adv-x="677"
d="M610 619v-570v-9c0 -24 -15 -40 -38 -40c-22 0 -35 14 -35 39v6l-1 401v1c0 9 -2 15 -4 15c-1 -1 -2 -1 -4 -5l-2 -4v-1l-140 -282l-3 -7c-12 -24 -26 -35 -44 -35s-31 13 -46 43l-143 283l-1 1l-2 4c0 1 -1 0 -2 1c-2 -1 -3 -1 -3 -5v-2v-402v-3c0 -35 -12 -51 -37 -51
c-23 0 -38 16 -38 42v9v575v5c0 29 9 41 32 41c20 0 29 -8 46 -41l3 -5l185 -365l1 -1l3 -3c0 -1 1 -1 2 -1c1 2 4 2 6 6l184 366l1 2c15 32 28 44 46 44c23 0 34 -15 34 -49v-3z" />
    <glyph glyph-name="N" unicode="N" horiz-adv-x="611"
d="M542 51v-7c0 -29 -10 -44 -31 -44c-14 0 -28 9 -38 25l-2 3l-319 464c0 1 0 1 -1 2c-1 3 -2 3 -4 3c-2 -2 -4 -2 -4 -7v-3l-1 -444v-3c0 -27 -14 -42 -38 -42c-25 0 -37 14 -37 46v3l1 562v3v6c0 37 9 50 36 50c15 0 25 -6 37 -25c2 -4 4 -4 4 -5l313 -457l1 -1
c2 -3 4 -3 5 -3c2 2 3 2 3 6v5v431v5c0 32 13 47 39 47c24 0 37 -16 37 -44v-1z" />
    <glyph glyph-name="O" unicode="O" horiz-adv-x="555"
d="M108 420v-158v-5c0 -115 67 -190 169 -190c103 0 170 76 170 192v6v140v7c0 92 -24 141 -85 174c-25 14 -53 21 -82 21c-97 0 -172 -79 -172 -182v-5zM521 402v-141v-4c0 -153 -103 -263 -245 -263c-85 0 -172 50 -210 121c-21 38 -32 86 -32 138v5v168v5
c0 138 109 248 246 248c89 0 177 -52 212 -125c19 -39 29 -89 29 -144v-8z" />
    <glyph glyph-name="P" unicode="P" horiz-adv-x="546"
d="M155 369h163h5c86 0 140 45 140 115c0 61 -49 109 -112 109h-6h-185h-3h-1c-10 0 -14 -3 -14 -12l1 -3v-193v-4c0 -8 3 -12 9 -12h3zM136 667h195h5c119 0 201 -75 201 -183c0 -114 -88 -189 -223 -189h-5l-153 -1h-4c-7 0 -9 -2 -9 -9v-2v-5v-226v-7
c0 -33 -14 -49 -39 -49c-24 0 -37 16 -37 49v4v543v6c0 63 5 69 64 69h5z" />
    <glyph glyph-name="Q" unicode="Q" horiz-adv-x="575"
d="M110 420v-159v-6c0 -87 26 -139 85 -172c25 -15 54 -23 84 -23c42 0 90 20 115 46c2 4 3 3 3 6c0 4 -1 4 -4 7l-23 25l-2 2l-9 12c-4 6 -6 12 -6 19c0 21 16 37 36 37c13 0 23 -4 35 -16l6 -6l3 -2c2 -3 2 -2 4 -3c7 -1 12 19 12 44v3l-1 167l1 16
c0 109 -70 185 -170 185c-95 0 -169 -77 -169 -176v-6zM522 411v-174v-6c0 -36 -9 -76 -24 -106c0 -3 -1 -3 -1 -4c0 -2 0 -2 3 -5c0 -1 1 -1 2 -2l42 -45c8 -10 13 -19 13 -28c0 -19 -17 -35 -36 -35c-12 0 -25 7 -37 20l-20 23l-2 3l-5 6c-1 2 -2 1 -4 2
c-3 0 -5 -2 -11 -6c-51 -44 -100 -63 -162 -63c-146 0 -246 104 -246 260v7v158v7c0 143 107 251 247 251c139 0 241 -110 241 -258v-5z" />
    <glyph glyph-name="R" unicode="R" horiz-adv-x="568"
d="M317 593h-156h-4h-1c-8 0 -11 -2 -11 -9v-2l-1 -199v-2c0 -10 2 -13 9 -13h2h167h4c98 0 146 37 146 113c0 74 -51 112 -149 112h-6zM136 668h199h7c120 0 204 -77 204 -188c0 -82 -49 -148 -133 -179c-4 -2 -5 -2 -5 -4c0 -3 0 -3 2 -7l1 -2l123 -230c7 -14 9 -19 9 -27
c0 -20 -16 -35 -37 -35c-16 0 -26 6 -37 26l-142 261l-1 3c-1 4 -2 4 -2 4c-1 3 -4 3 -7 3h-4h-3h-153h-4c-7 0 -9 -3 -9 -10v-3l-2 -234v-3c0 -29 -14 -46 -37 -46c-26 0 -38 14 -38 46v2l2 572v5c0 38 10 46 63 46h4z" />
    <glyph glyph-name="S" unicode="S" horiz-adv-x="502"
d="M244 381l31 -10c8 -3 16 -5 26 -8c103 -31 140 -55 164 -105c10 -20 15 -43 15 -67c0 -111 -96 -192 -227 -192c-75 0 -144 22 -217 71c-15 10 -22 22 -22 35c0 21 16 38 37 38c11 0 15 -2 37 -17c54 -37 104 -54 160 -54c90 0 159 51 159 119c0 27 -17 56 -42 69
c-24 12 -64 27 -120 43c-66 20 -113 41 -147 65c-41 30 -66 82 -66 134c0 106 94 186 218 186c58 0 123 -20 182 -57c11 -8 17 -18 17 -31c0 -12 -7 -24 -18 -32c-5 -3 -10 -5 -15 -5c-10 0 -19 3 -39 15c-43 25 -83 36 -123 36c-83 0 -147 -50 -147 -114
c0 -53 39 -87 137 -119z" />
    <glyph glyph-name="T" unicode="T" horiz-adv-x="486"
d="M56 665h370h7c30 0 46 -13 46 -37c0 -25 -14 -36 -47 -36h-4h-132h-4c-6 0 -9 -5 -9 -13v-2v-527v-7c0 -31 -14 -47 -38 -47s-37 15 -37 47v7v529v2c0 10 -1 11 -12 11h-3h-134h-3c-36 0 -50 9 -50 35c0 27 13 38 45 38h5z" />
    <glyph glyph-name="U" unicode="U" horiz-adv-x="610"
d="M66 252v373v6c0 29 14 47 37 47c22 0 38 -18 38 -43v-4v-374v-3c0 -78 22 -125 75 -158c26 -17 57 -25 89 -25c80 0 149 58 161 136c2 18 3 42 3 72v4l1 344v4c0 29 15 46 39 46c22 0 35 -15 35 -40v-6v-377v-6c0 -146 -101 -250 -240 -250c-138 0 -238 105 -238 250v4z
" />
    <glyph glyph-name="V" unicode="V" horiz-adv-x="492"
d="M475 608l-196 -576c-8 -24 -18 -33 -33 -33c-14 0 -24 8 -30 27l-1 4l-199 579l-1 5c-4 7 -5 13 -5 19c0 21 16 37 38 37c18 0 30 -10 36 -30c1 -4 2 -4 2 -4l154 -449l1 -2c2 -5 3 -5 5 -5c2 2 4 2 6 7l153 446c0 2 0 1 1 5c6 20 19 32 36 32c21 0 39 -17 39 -35
c0 -5 -2 -15 -4 -22z" />
    <glyph glyph-name="W" unicode="W" horiz-adv-x="774"
d="M598 41l-2 -7c-7 -25 -18 -35 -36 -35c-19 0 -29 11 -38 41l-130 464v3c-2 4 -3 4 -4 4c-1 -1 -2 -1 -3 -5l-1 -1l-133 -460c-10 -35 -21 -47 -41 -47c-16 0 -29 12 -35 36l-1 4l-155 568c-3 11 -5 22 -5 27c0 19 18 35 38 35c19 0 32 -11 38 -33l1 -5l116 -423l1 -2
c2 -6 2 -6 4 -6c3 1 4 1 6 8v2l118 407c10 35 27 52 52 52s42 -19 52 -57c1 -4 2 -4 2 -5l114 -400v-2c1 -4 2 -4 4 -4c1 1 2 1 3 4l2 6l1 3l113 408c9 34 22 49 43 49c22 0 38 -15 38 -36c0 -8 -2 -14 -6 -28v-2z" />
    <glyph glyph-name="X" unicode="X" horiz-adv-x="496"
d="M301 351l-2 -3c-2 -3 -2 -3 -2 -4c0 -3 0 -3 3 -7l1 -3l173 -266c8 -14 12 -23 12 -30c0 -22 -17 -38 -38 -38c-16 0 -22 3 -35 23l-3 5l-154 235c-2 6 -5 6 -7 6c-1 -1 -3 -1 -6 -5c0 -1 0 -1 -1 -1l-157 -235l-2 -3c-13 -20 -21 -25 -38 -25c-19 0 -36 16 -36 36
c0 9 5 19 14 33c2 3 3 3 3 4l173 264c1 3 2 3 2 5c0 3 -1 7 -4 11l-169 256c-5 7 -8 19 -8 27c0 19 17 36 37 36c16 0 28 -8 38 -25c1 -3 2 -3 3 -5l142 -216l1 -2c2 -7 5 -7 8 -7c3 2 5 2 8 6c1 3 1 3 2 3l144 219c10 15 23 23 37 23c21 0 37 -15 37 -34
c0 -9 -6 -25 -17 -41z" />
    <glyph glyph-name="Y" unicode="Y" horiz-adv-x="512"
d="M295 319l-3 -4c-3 -5 -5 -11 -5 -20v-1v-248c0 -34 -11 -47 -36 -47c-27 0 -38 14 -38 50l-1 245v5v1c0 11 0 14 -5 21c0 2 -1 1 -1 3l-184 279c-6 9 -11 23 -11 30c0 19 18 36 40 36c14 0 21 -5 32 -21l160 -243l2 -2l3 -5c2 -2 3 -1 4 -2c3 0 8 4 12 10l162 242
c10 16 21 23 36 23c21 0 38 -16 38 -37c0 -7 -3 -15 -9 -23z" />
    <glyph glyph-name="Z" unicode="Z" horiz-adv-x="505"
d="M434 669h6c42 0 62 -13 62 -40c0 -12 -3 -20 -14 -34c-1 -2 -2 -2 -2 -3l-364 -510c-2 -4 -3 -4 -3 -6c0 -3 2 -4 9 -4h3h301h4c38 0 52 -10 52 -36c0 -25 -16 -37 -44 -37h-2h-374h-5c-43 0 -60 9 -60 34c0 10 7 25 21 45l363 505l2 2c1 3 1 2 1 5c0 4 -2 4 -7 4h-4
h-296h-7c-41 0 -57 11 -57 37s16 38 47 38h3h9h356z" />
    <glyph glyph-name="bracketleft" unicode="[" horiz-adv-x="285"
d="M267 666v-63h-105v-709h105v-63h-179v835h179z" />
    <glyph glyph-name="backslash" unicode="\" horiz-adv-x="176"
d="M-134 658h50l394 -658h-51z" />
    <glyph glyph-name="bracketright" unicode="]" horiz-adv-x="285"
d="M199 666v-835h-180v63h106v709h-106v63h180z" />
    <glyph glyph-name="asciicircum" unicode="^"
d="M91 379h-70l192 287h73l192 -287h-71l-158 232z" />
    <glyph glyph-name="underscore" unicode="_"
d="M500 -75v-73h-500v73h500z" />
    <glyph glyph-name="quoteleft" unicode="&#x2018;" horiz-adv-x="245"
d="M166 633l-6 -10c-9 -16 -15 -37 -15 -53c0 -8 0 -9 3 -25c1 -5 1 -9 1 -12c0 -19 -18 -35 -39 -35c-25 0 -41 25 -41 66c0 68 33 127 69 127c20 0 35 -14 35 -34c0 -7 -2 -15 -7 -24z" />
    <glyph glyph-name="a" unicode="a" horiz-adv-x="530"
d="M378 247c0 56 -6 77 -30 106c-25 31 -63 49 -102 49c-64 0 -120 -48 -132 -111c-2 -11 -3 -29 -3 -50c0 -37 4 -67 11 -86c18 -48 70 -82 125 -82c45 0 87 22 108 56c19 32 23 50 23 108v10zM454 114v-3c0 -18 5 -28 18 -40l4 -4c8 -6 11 -15 11 -24
c0 -22 -15 -40 -34 -40c-25 0 -46 15 -63 43c-1 3 -3 3 -5 3s-4 0 -8 -4c-39 -31 -83 -46 -130 -46c-62 0 -126 30 -165 78c-34 42 -48 88 -48 161c0 72 14 116 50 160c39 49 98 76 163 76c42 0 75 -10 117 -36c2 -2 4 -2 5 -2c1 -1 3 -1 5 -1c4 -1 6 1 8 9
c5 17 18 28 35 28c22 0 37 -16 37 -39v-319z" />
    <glyph glyph-name="b" unicode="b" horiz-adv-x="513"
d="M404 236c-1 55 -6 76 -25 104c-25 36 -63 56 -106 56c-48 0 -90 -24 -116 -64c-19 -30 -21 -42 -21 -102c0 -68 3 -83 26 -111c25 -31 67 -51 106 -51c41 0 90 25 113 58c18 25 23 46 23 100v10zM136 437v-3c0 -6 1 -6 4 -6c2 0 4 0 5 1c0 1 2 1 4 3c28 21 81 38 123 38
c52 0 103 -21 141 -58c47 -46 66 -98 66 -180c0 -62 -9 -102 -31 -139c-38 -63 -107 -101 -180 -101c-46 0 -88 14 -119 39l-3 3l-2 2c-1 2 -2 2 -3 2c-1 -2 -3 -2 -3 -6c-3 -23 -19 -37 -40 -37c-24 0 -36 14 -36 46v5l-2 575v3c0 28 14 44 37 44c25 0 39 -16 39 -46v-7
v-178z" />
    <glyph glyph-name="c" unicode="c" horiz-adv-x="439"
d="M347 351l-8 7c-29 26 -57 37 -91 37c-57 0 -113 -38 -127 -86c-6 -19 -9 -45 -9 -78c0 -79 14 -114 60 -145c20 -14 45 -22 70 -22c37 0 73 15 101 43c15 14 19 16 31 16c21 0 36 -15 36 -35c0 -12 -4 -19 -16 -32c-42 -41 -95 -63 -153 -63c-96 0 -179 65 -199 155
c-5 23 -8 50 -8 80c0 107 30 167 104 212c32 20 69 30 107 30c55 0 108 -22 147 -61c11 -11 16 -20 16 -30c0 -21 -17 -37 -39 -37c-9 0 -14 2 -22 9z" />
    <glyph glyph-name="d" unicode="d" horiz-adv-x="513"
d="M109 236v-10c0 -55 5 -77 23 -100c24 -34 71 -58 113 -58c39 0 82 21 106 51c21 27 26 47 26 97c0 74 -2 84 -21 116c-25 40 -68 64 -116 64c-44 0 -81 -20 -106 -56c-19 -28 -24 -49 -25 -104zM367 34l-3 -2c-31 -26 -73 -40 -119 -40c-128 0 -211 92 -211 236
c0 87 18 137 66 184c38 37 89 58 141 58c41 0 95 -17 123 -39c5 -4 6 -4 8 -4c3 2 5 2 5 6v4v178v7c0 30 14 46 39 46c23 0 37 -16 37 -44v-2l-2 -576v-5c0 -32 -12 -46 -36 -46c-21 0 -37 14 -39 36c0 7 -1 6 -3 7c0 0 -2 0 -3 -2z" />
    <glyph glyph-name="e" unicode="e" horiz-adv-x="488"
d="M130 271l226 1c17 0 19 1 19 8c0 61 -63 120 -130 120c-69 0 -133 -59 -133 -122c0 -5 3 -7 9 -7h9zM130 196h-3h-7c-5 -1 -6 -1 -6 -6c-1 -61 63 -119 130 -119c35 0 65 11 95 36c11 9 17 11 28 11c21 0 35 -14 35 -36c0 -13 -4 -22 -18 -33c-42 -35 -88 -52 -141 -52
c-123 1 -209 94 -209 231c0 42 8 95 19 123c27 71 108 123 192 123c116 0 209 -93 209 -210c0 -53 -13 -67 -59 -67z" />
    <glyph glyph-name="f" unicode="f" horiz-adv-x="240"
d="M161 363l1 -315v-4c0 -31 -15 -47 -39 -47s-37 14 -37 43v3v4l-1 321v3v1c0 7 -2 8 -9 9h-5c-40 2 -53 11 -53 36s16 38 47 38h3c15 0 17 1 17 9v4v2l-1 102v6c0 65 26 95 84 95c38 0 53 -12 53 -40c0 -20 -12 -30 -44 -36c-15 -3 -18 -10 -18 -41v-84v-3v-3
c0 -8 2 -8 7 -8h6c31 -2 45 -14 45 -38s-17 -39 -46 -39h-1v0c-7 -1 -8 -1 -8 -6v-7z" />
    <glyph glyph-name="g" unicode="g" horiz-adv-x="514"
d="M377 216c0 79 -18 120 -66 148c-20 11 -43 17 -66 17c-62 0 -121 -45 -133 -99c-3 -14 -5 -36 -5 -65c0 -49 2 -64 10 -83c21 -49 70 -81 125 -81c58 0 112 38 127 90c5 20 8 45 8 73zM454 397l1 -389c0 -139 -88 -235 -214 -235c-68 0 -128 30 -168 85c-5 8 -8 15 -8 22
c0 19 17 36 37 36c11 0 21 -5 31 -17c29 -35 66 -54 110 -54c80 0 137 65 137 154c0 20 -1 27 -5 27c-1 0 -2 0 -4 -2l-2 -2c-36 -26 -83 -41 -128 -41c-97 0 -182 66 -201 159c-4 22 -7 49 -7 77c0 104 30 164 103 210c31 20 67 31 105 31c44 0 99 -18 129 -42
c1 -2 3 -2 4 -2c4 1 5 1 6 5c3 21 17 33 36 33c26 0 38 -15 38 -47v-8z" />
    <glyph glyph-name="h" unicode="h" horiz-adv-x="532"
d="M136 618v-179v-4v-3v-2c0 -4 1 -3 3 -4c1 1 3 1 5 2c1 2 2 1 4 3c1 3 3 2 6 5c30 24 67 36 109 36c120 0 210 -91 210 -213v-4v-207v-4c0 -30 -14 -46 -39 -46c-26 0 -36 13 -36 48v3v176v6c0 79 -15 112 -65 144c-21 13 -45 20 -69 20c-56 0 -108 -40 -121 -93
c-5 -20 -7 -44 -7 -73v-5l-1 -180v-7c0 -25 -15 -41 -37 -41c-24 0 -38 16 -38 46v2v571v7c0 30 13 47 37 47c25 0 39 -16 39 -45v-6z" />
    <glyph glyph-name="i" unicode="i" horiz-adv-x="206"
d="M64 43v374v6c0 23 16 41 38 41s38 -19 38 -44v-5v-365v-4c0 -34 -14 -52 -40 -52c-23 0 -36 15 -36 44v5zM145 622c0 -23 -19 -42 -42 -42c-24 0 -43 19 -43 43c0 25 19 43 44 43c24 0 41 -18 41 -44z" />
    <glyph glyph-name="j" unicode="j" horiz-adv-x="224"
d="M164 619c0 -23 -19 -42 -42 -42c-21 0 -41 21 -41 42c0 23 19 43 41 43c23 0 42 -20 42 -43zM161 408v-493v-4c0 -73 -38 -118 -107 -124c-11 -1 -25 -1 -38 -1c-43 0 -59 10 -59 38c0 22 16 37 39 38h39h4c39 1 48 10 48 51v4v496v4c0 26 15 43 37 43
c23 0 37 -17 37 -47v-5z" />
    <glyph glyph-name="k" unicode="k" horiz-adv-x="491"
d="M136 619v-384v-2c1 -8 1 -7 4 -8c2 -1 4 1 10 6l248 216l3 3c13 11 23 16 35 16c19 0 36 -17 36 -37c0 -12 -5 -21 -18 -32l-4 -3l-105 -94l-1 -1l-3 -3c0 -2 -1 -1 -1 -3s0 -2 1 -4l2 -3l1 -3l112 -222c1 -4 3 -4 4 -7c4 -9 6 -13 6 -20c0 -22 -17 -37 -40 -37
c-17 0 -24 3 -35 25l-1 3l-108 208l-1 2l-1 2c0 1 -1 1 -3 1c-3 0 -6 -1 -10 -5c0 -1 -1 -1 -1 -1l-124 -110l-2 -2c-3 -3 -3 -3 -3 -7v-3v-61v-5c-1 -32 -15 -48 -40 -48c-27 0 -37 13 -37 52v6v567v5c0 25 17 43 40 43c24 0 36 -16 36 -47v-3z" />
    <glyph glyph-name="l" unicode="l" horiz-adv-x="216"
d="M134 617v-509v-6c0 -24 4 -34 17 -44s18 -19 18 -32c0 -20 -17 -36 -37 -36c-41 0 -72 44 -72 106v6v510v6c0 30 13 46 38 46c22 0 36 -17 36 -42v-5z" />
    <glyph glyph-name="m" unicode="m" horiz-adv-x="733"
d="M674 305v-258v-5c0 -28 -17 -45 -41 -45c-23 0 -37 16 -37 44v3v246v5c0 64 -35 101 -96 101c-63 0 -98 -41 -98 -115v-5v-228v-8c0 -26 -16 -43 -39 -43s-38 16 -38 43v4v234v4c0 76 -31 114 -93 114c-64 0 -96 -39 -96 -117v-5v-219v-4c0 -37 -12 -54 -38 -54
c-27 0 -38 14 -38 51v5v364v4c0 30 14 47 39 47c13 0 22 -5 30 -17l3 -3c1 -4 3 -4 5 -4c2 -1 5 1 12 5c27 15 52 22 83 22c43 0 86 -16 120 -46c7 -6 10 -7 13 -7s5 1 9 5c37 32 81 49 127 49c98 0 173 -70 173 -162v-5z" />
    <glyph glyph-name="n" unicode="n" horiz-adv-x="536"
d="M476 256v-205v-4c0 -30 -14 -47 -39 -47c-26 0 -39 13 -39 44v3v203v5c0 86 -53 143 -132 143c-56 0 -106 -36 -119 -84c-6 -21 -8 -49 -8 -83v-6v-175v-10c0 -27 -16 -44 -41 -44c-24 0 -38 16 -38 45v5v359v5c0 44 11 60 40 60c19 0 35 -14 37 -32c1 -5 2 -5 4 -5
c2 1 5 1 9 4c35 27 75 41 119 41c119 0 207 -93 207 -217v-5z" />
    <glyph glyph-name="o" unicode="o" horiz-adv-x="487"
d="M377 253c-2 97 -49 151 -131 151c-66 0 -122 -43 -132 -100c-2 -11 -3 -27 -3 -49c0 -27 2 -59 4 -73c9 -61 65 -108 129 -108c60 0 114 42 127 99c4 19 6 43 6 71v9zM453 245v-8c0 -142 -85 -238 -210 -238c-93 0 -177 62 -199 148c-6 26 -10 58 -10 94
c0 106 28 162 106 209c32 20 68 30 105 30c119 0 205 -97 208 -235z" />
    <glyph glyph-name="p" unicode="p" horiz-adv-x="514"
d="M404 221v11c0 54 -5 76 -23 100c-25 34 -71 58 -113 58c-39 0 -82 -21 -106 -51c-21 -27 -26 -47 -26 -98c0 -74 2 -84 21 -115c25 -40 68 -64 116 -64c44 0 81 20 106 55c19 29 24 49 25 104zM146 424l3 2c31 26 73 40 119 40c128 0 211 -93 211 -236
c0 -87 -18 -138 -66 -185c-38 -37 -89 -57 -141 -57c-41 0 -95 16 -123 38c-5 5 -6 5 -8 5c-2 -2 -4 -2 -4 -6v-3l-1 -179v-7c0 -29 -14 -45 -39 -45c-23 0 -37 16 -37 44v2l2 574v6c0 31 12 47 36 47c21 0 37 -16 39 -38c0 -6 1 -6 3 -6c1 0 3 0 4 2z" />
    <glyph glyph-name="q" unicode="q" horiz-adv-x="514"
d="M109 221c1 -55 6 -75 26 -104c24 -35 61 -55 105 -55c48 0 90 23 116 64c18 30 21 42 21 102c0 68 -3 82 -26 111c-25 31 -67 51 -106 51c-42 0 -90 -25 -113 -58c-18 -26 -23 -46 -23 -100v-11zM377 21v4c0 6 -1 6 -4 6c-1 0 -3 0 -4 -1c0 -1 -2 -1 -4 -3
c-29 -23 -83 -39 -124 -39c-52 0 -103 20 -141 57c-47 46 -66 98 -66 181c0 61 9 102 31 139c38 62 106 101 180 101c46 0 88 -14 119 -40l3 -2l2 -1c2 -2 3 -2 4 -2c1 2 3 2 3 6c2 21 18 37 39 37c24 0 36 -16 36 -47v-5l2 -574v-3c0 -28 -14 -44 -37 -44
c-25 0 -39 16 -39 45v7v178z" />
    <glyph glyph-name="r" unicode="r" horiz-adv-x="354"
d="M135 277v-227v-6c0 -34 -11 -48 -37 -48s-38 14 -38 46v6v361v5c0 35 13 52 38 52c13 0 25 -6 32 -18c4 -6 6 -6 8 -6c1 0 2 0 6 3c26 16 59 27 84 27c34 0 69 -13 96 -35c13 -10 18 -20 18 -32c0 -21 -17 -39 -37 -39c-7 0 -11 2 -22 9c-22 16 -40 24 -55 24
c-58 0 -93 -44 -93 -116v-6z" />
    <glyph glyph-name="s" unicode="s" horiz-adv-x="434"
d="M209 280l30 -6c59 -12 88 -22 114 -37c40 -24 60 -56 60 -98c0 -85 -70 -140 -178 -140c-78 0 -154 25 -205 68c-9 8 -13 16 -13 26c0 22 15 38 36 38c8 0 15 -2 28 -11l9 -5c42 -28 94 -44 141 -44c62 0 103 24 103 60c0 34 -16 50 -61 59c-2 0 -16 3 -43 9
c-7 1 -16 3 -27 6l-36 7c-93 19 -135 59 -135 129c0 87 73 147 182 147c67 0 141 -29 172 -67c6 -8 9 -16 9 -22c0 -13 -11 -31 -25 -38c-3 -2 -7 -3 -13 -3c-7 0 -11 2 -21 8l-8 5c-2 1 -5 3 -9 6c-46 29 -68 36 -109 36c-60 0 -100 -27 -100 -67c0 -33 20 -49 76 -61z" />
    <glyph glyph-name="t" unicode="t" horiz-adv-x="257"
d="M166 481v-2c0 -11 1 -11 15 -11c44 -1 58 -10 58 -38c0 -24 -16 -38 -42 -38h-4h-14c-13 0 -14 -1 -14 -11v0v-2l-2 -263v-5c0 -29 6 -37 29 -41l9 -1c22 -3 34 -16 34 -37c0 -25 -18 -37 -52 -37c-69 0 -96 26 -96 96v2l2 284v4c0 9 -3 11 -15 11h-1h-3
c-34 0 -50 13 -50 37c0 26 17 39 51 39h3h2c11 0 14 2 14 12v2v4l1 137v6c0 26 14 42 38 42c23 0 38 -16 38 -42v-5z" />
    <glyph glyph-name="u" unicode="u" horiz-adv-x="536"
d="M59 214v196v4c0 30 15 48 39 48c26 0 39 -15 39 -45v-3v-199v-5c0 -85 53 -143 132 -143c56 0 107 36 120 85c5 20 8 48 8 83v6v171v9c0 27 16 45 40 45s38 -17 38 -46v-4v-351v-4c0 -45 -11 -61 -40 -61c-18 0 -34 14 -37 32c0 5 -1 5 -4 5c-1 -1 -4 -1 -8 -4
c-35 -27 -76 -40 -120 -40c-119 0 -207 92 -207 216v5z" />
    <glyph glyph-name="v" unicode="v" horiz-adv-x="445"
d="M89 434l126 -289c0 -1 0 -1 1 -3c2 -4 3 -4 5 -4c2 1 4 1 6 7l124 286c10 23 22 33 41 33c20 0 37 -15 37 -33c0 -7 -3 -18 -9 -31l-164 -380c-7 -16 -20 -24 -36 -24c-17 0 -26 7 -36 28l-163 373c0 1 0 1 -2 4c-4 9 -6 17 -6 24c0 22 18 39 40 39c15 0 27 -9 34 -25z
" />
    <glyph glyph-name="w" unicode="w" horiz-adv-x="621"
d="M600 411l-111 -367c-11 -34 -21 -44 -44 -44c-22 0 -33 10 -43 42c-1 6 -2 6 -2 7l-85 249c-1 7 -3 7 -5 7c-1 0 -2 0 -2 -1l-1 -5l-1 -3l-82 -248l-1 -5c-13 -35 -23 -44 -46 -44s-33 10 -43 43l-110 369v2c-3 7 -4 15 -4 20c0 20 17 36 39 36c21 0 32 -9 38 -32
c0 -4 1 -4 1 -4l77 -260c2 -6 3 -6 5 -6c2 1 3 1 5 8l85 256c0 4 1 3 1 5c8 25 19 34 40 34c20 0 33 -12 41 -39c1 -2 1 -2 1 -3l84 -253l2 -2c2 -7 3 -7 4 -7c2 1 3 1 5 6l1 3l76 253c9 32 19 42 41 42c21 0 39 -16 39 -35c0 -5 -1 -11 -3 -18z" />
    <glyph glyph-name="x" unicode="x" horiz-adv-x="444"
d="M277 228l137 -161l4 -4c7 -8 10 -16 10 -26c0 -23 -16 -38 -39 -38c-13 0 -25 5 -36 18l-123 147l-2 2l-4 4c0 1 -1 1 -2 1c-1 -1 -3 -1 -5 -2l-4 -3l-2 -2l-117 -143l-2 -3c-10 -14 -20 -18 -34 -18c-23 0 -39 15 -39 38c0 10 1 11 10 24l4 5l129 160l1 2l3 3
c0 3 1 2 1 4c0 3 0 2 -4 7c0 1 -1 1 -2 2l-131 156c-9 10 -13 19 -13 28c0 21 19 39 41 39c12 0 21 -5 33 -19l119 -142l2 -2l3 -2c2 -2 3 -1 4 -2c2 1 4 1 7 5l2 2l106 134l5 6c9 12 21 19 35 19c21 0 38 -17 38 -37c0 -10 -5 -20 -20 -38l-115 -144c-4 -5 -5 -8 -5 -10
c0 -4 1 -4 3 -7z" />
    <glyph glyph-name="y" unicode="y" horiz-adv-x="450"
d="M427 408l-179 -457c0 -3 -1 -3 -2 -7c-30 -80 -113 -154 -172 -154c-18 0 -34 17 -34 38c0 14 8 25 25 33l9 4c46 21 75 51 94 97l30 72l1 1c1 5 1 4 1 6s0 2 -1 4c-1 5 -2 4 -2 6c0 1 -1 1 -1 2l-167 345l-2 4l-7 14c-1 3 -1 6 -1 10c0 21 16 38 37 38
c17 0 29 -9 38 -29l140 -284v-1c1 -4 2 -3 4 -4c3 2 6 2 7 6l110 276c0 1 0 1 1 4c8 24 21 36 40 36c21 0 38 -16 38 -35c0 -4 -1 -8 -3 -13l-2 -9z" />
    <glyph glyph-name="z" unicode="z" horiz-adv-x="442"
d="M74 465h294h6c37 0 52 -10 52 -36c0 -11 -5 -22 -11 -28c-1 -2 -3 -2 -3 -3l-265 -312l-2 -2l-3 -3c-1 -3 -2 -2 -2 -3s-1 -1 -1 -2c0 -4 2 -3 6 -4h3l221 -1h5c31 0 46 -12 46 -36c0 -25 -15 -37 -44 -37h-4h-304h-5c-35 0 -51 10 -51 34c0 12 5 22 17 34c3 6 4 5 5 6
l262 306l1 1c3 4 4 4 4 6c0 5 -2 4 -7 5h-4h-213h-5c-35 0 -53 13 -53 38c0 26 15 37 50 37h5z" />
    <glyph glyph-name="braceleft" unicode="{" horiz-adv-x="285"
d="M106 248c45 -25 61 -56 61 -119v-157c0 -86 13 -100 96 -100v-55c-12 -1 -17 -1 -24 -1c-102 0 -142 41 -142 147v163c0 59 -15 84 -57 94v56c42 11 57 34 57 94v174c0 97 42 138 143 138c7 0 12 0 23 -1v-55c-83 -1 -96 -14 -96 -98v-163c0 -65 -15 -92 -61 -117z" />
    <glyph glyph-name="bar" unicode="|"
d="M219 666h61v-839h-61v839z" />
    <glyph glyph-name="braceright" unicode="}" horiz-adv-x="285"
d="M179 249c-45 25 -61 55 -61 119v158c0 86 -13 100 -96 100v55c13 1 17 1 25 1c101 0 141 -42 141 -147v-163c0 -60 15 -85 57 -95v-55c-43 -12 -57 -35 -57 -95v-174c0 -96 -42 -137 -143 -137c-7 0 -12 0 -23 1v55c82 0 96 15 96 97v163c0 65 14 92 61 117z" />
    <glyph glyph-name="asciitilde" unicode="~" horiz-adv-x="499"
d="M457 697l38 -35c-47 -83 -85 -116 -134 -116c-24 0 -40 5 -114 38c-80 34 -87 37 -107 37c-35 0 -60 -22 -99 -90l-37 37c49 83 85 114 134 114c28 0 49 -7 126 -41c63 -29 80 -35 95 -35c35 0 63 26 98 91z" />
    <glyph glyph-name="exclamdown" unicode="&#xa1;" horiz-adv-x="243"
d="M78 623c0 24 18 42 43 42s44 -17 44 -41c0 -25 -19 -44 -44 -44c-24 0 -43 19 -43 43zM84 43l-1 364v4c0 36 13 53 40 53c26 0 38 -15 38 -47v-6v-369v-4c0 -27 -15 -42 -39 -42s-38 15 -38 43v4z" />
    <glyph glyph-name="cent" unicode="&#xa2;" horiz-adv-x="439"
d="M275 -5v-24c0 -26 -15 -44 -38 -44s-37 16 -37 42v3v24c-30 5 -41 10 -65 25c-73 46 -101 103 -101 207c0 106 29 164 104 212c26 17 39 22 73 29v24c0 27 16 45 39 45s37 -17 37 -42v-3v-24l6 -2c70 -25 115 -59 115 -88c0 -21 -17 -37 -39 -37c-9 0 -14 2 -22 9l-8 7
c-29 26 -57 37 -91 37c-57 0 -113 -38 -127 -86c-6 -19 -9 -45 -9 -78c0 -79 14 -114 60 -145c20 -14 45 -22 70 -22c37 0 73 15 101 43c15 14 19 16 31 16c21 0 36 -15 36 -35c0 -33 -57 -74 -128 -91z" />
    <glyph glyph-name="sterling" unicode="&#xa3;" horiz-adv-x="0"
 />
    <glyph glyph-name="fraction" unicode="&#x2044;" horiz-adv-x="176"
d="M310 658l-392 -658h-52l393 658h51z" />
    <glyph glyph-name="yen" unicode="&#xa5;" horiz-adv-x="520"
d="M371 395h124v-50h-150l-43 -75h193v-50h-195v-220h-81v219h-188v51h186l-43 74h-143v51h117l-149 271h91l170 -327l172 327h89z" />
    <glyph glyph-name="florin" unicode="&#x192;" horiz-adv-x="520"
d="M406 423l-9 -50h-105l-62 -339c-14 -73 -27 -108 -51 -137c-26 -32 -63 -46 -119 -46c-21 0 -30 1 -53 4l11 62c20 -3 25 -3 36 -3c59 0 77 28 99 145l57 314h-93l9 50h93l19 101c12 63 25 99 47 123c28 31 66 45 120 45c19 0 35 -1 63 -4l-11 -62c-24 3 -32 3 -46 3
c-53 0 -78 -28 -92 -107l-18 -99h105z" />
    <glyph glyph-name="section" unicode="&#xa7;" horiz-adv-x="510"
d="M168 409c-47 -18 -73 -48 -73 -88c0 -28 17 -51 54 -77c21 -14 57 -36 100 -60c25 -13 41 -22 49 -27c15 -10 25 -16 30 -18c1 -1 4 -2 9 -4c47 14 76 47 76 85c0 32 -16 54 -58 83c-25 17 -67 42 -90 55l-51 27l-35 19zM433 512h-72c-3 71 -41 109 -109 109
c-56 0 -95 -32 -95 -78c0 -41 16 -58 98 -100c110 -58 159 -88 190 -119c26 -26 39 -58 39 -93c0 -60 -39 -111 -102 -133c39 -34 54 -63 54 -104c0 -88 -73 -147 -180 -147c-116 0 -188 66 -188 174v5h73c3 -77 42 -116 114 -116c61 0 102 33 102 83c0 42 -31 72 -124 122
l-62 33c-82 44 -116 71 -134 109c-8 17 -12 36 -12 57c0 63 35 109 101 133c-33 30 -46 58 -46 96c0 82 71 140 172 140c111 0 179 -64 181 -171z" />
    <glyph glyph-name="currency" unicode="&#xa4;" horiz-adv-x="666"
d="M335 525c-92 0 -166 -73 -166 -165c0 -91 74 -165 164 -165c91 0 164 74 164 165c0 90 -73 165 -162 165zM49 124l96 95c-34 46 -49 88 -49 141c0 54 14 94 50 142l-97 96l44 45l97 -97c48 35 90 50 143 50c52 0 93 -14 142 -48l95 94l43 -44l-94 -94
c36 -47 51 -90 51 -145c0 -52 -14 -92 -48 -139l95 -96l-44 -44l-95 95c-46 -35 -92 -51 -145 -51c-52 0 -94 14 -144 51l-96 -95z" />
    <glyph glyph-name="quotesingle" unicode="'" horiz-adv-x="192"
d="M119 392h-46l-16 274h78z" />
    <glyph glyph-name="quotedblleft" unicode="&#x201c;" horiz-adv-x="377"
d="M166 633l-6 -10c-9 -16 -15 -37 -15 -53c0 -8 0 -9 3 -25c1 -5 1 -9 1 -12c0 -19 -18 -35 -39 -35c-25 0 -41 25 -41 66c0 68 33 127 69 127c20 0 35 -14 35 -34c0 -7 -2 -15 -7 -24zM292 633l-6 -10c-9 -16 -15 -37 -15 -53c0 -8 0 -9 3 -24c1 -5 1 -10 1 -13
c0 -19 -18 -35 -39 -35c-25 0 -41 25 -41 66c0 68 33 128 69 128c20 0 35 -15 35 -35c0 -7 -2 -15 -7 -24z" />
    <glyph glyph-name="guillemotleft" unicode="&#xab;" horiz-adv-x="0"
 />
    <glyph glyph-name="guilsinglleft" unicode="&#x2039;" horiz-adv-x="0"
 />
    <glyph glyph-name="guilsinglright" unicode="&#x203a;" horiz-adv-x="0"
 />
    <glyph glyph-name="fi" unicode="&#xfb01;" horiz-adv-x="0"
 />
    <glyph glyph-name="fl" unicode="&#xfb02;" horiz-adv-x="0"
 />
    <glyph glyph-name="endash" unicode="&#x2013;"
d="M9 372h481v-62h-481v62z" />
    <glyph glyph-name="dagger" unicode="&#x2020;" horiz-adv-x="510"
d="M478 462v-69h-184v-531h-77v531h-184v69h184v204h77v-204h184z" />
    <glyph glyph-name="daggerdbl" unicode="&#x2021;" horiz-adv-x="510"
d="M478 486v-68h-184v-306h184v-67h-184v-182h-77v182h-184v67h184v306h-184v68h184v180h77v-180h184z" />
    <glyph glyph-name="periodcentered" unicode="&#xb7;" horiz-adv-x="241"
d="M163 239v-2c0 -26 -18 -45 -43 -45c-23 0 -42 18 -42 40c0 25 19 46 43 46c23 0 41 -17 42 -39z" />
    <glyph glyph-name="paragraph" unicode="&#xb6;" horiz-adv-x="561"
d="M240 -96v413c-5 -1 -10 -1 -14 -1c-108 0 -183 71 -183 173c0 77 43 140 108 162c32 11 72 16 113 16h230v-40h-48v-724h-51v724h-102v-723h-53z" />
    <glyph glyph-name="bullet" unicode="&#x2022;" horiz-adv-x="327"
d="M163 420c45 0 81 -37 81 -82s-36 -81 -81 -81s-81 36 -81 81s36 82 81 82z" />
    <glyph glyph-name="quotedblbase" unicode="&#x201e;" horiz-adv-x="377"
d="M211 -64l6 11c10 16 15 36 15 52c0 7 0 8 -3 24c-1 5 -1 9 -1 12c0 19 18 35 40 35c25 0 40 -25 40 -65c0 -67 -32 -127 -69 -127c-20 0 -35 15 -35 34c0 7 2 15 7 24zM85 -64l6 11c10 16 15 36 15 52c0 7 0 8 -3 24c-1 5 -1 9 -1 12c0 19 18 35 40 35
c25 0 40 -25 40 -65c0 -67 -32 -127 -69 -127c-20 0 -35 15 -35 34c0 7 2 15 7 24z" />
    <glyph glyph-name="quotedblright" unicode="&#x201d;" horiz-adv-x="377"
d="M203 557l6 10c9 16 15 37 15 53c0 8 0 9 -3 25c-1 4 -2 9 -2 12c0 19 18 35 40 35c25 0 40 -25 40 -66c0 -68 -32 -128 -68 -128c-21 0 -36 15 -36 35c0 7 3 15 8 24zM77 557l6 10c9 16 15 37 15 53c0 8 0 9 -3 24c-1 5 -2 9 -2 13c0 19 18 34 40 34c25 0 40 -24 40 -65
c0 -68 -32 -128 -68 -128c-21 0 -36 15 -36 35c0 7 3 15 8 24z" />
    <glyph glyph-name="guillemotright" unicode="&#xbb;" horiz-adv-x="0"
 />
    <glyph glyph-name="ellipsis" unicode="&#x2026;" horiz-adv-x="470"
d="M392 42v-2c0 -26 -19 -43 -43 -43s-43 17 -43 38c0 26 20 46 44 46c22 0 40 -17 42 -39zM277 42v-2c0 -26 -18 -43 -43 -43c-23 0 -42 17 -42 38c0 26 19 46 43 46c22 0 40 -17 42 -39zM163 42v-2c0 -26 -18 -43 -43 -43c-23 0 -42 17 -42 38c0 26 19 46 43 46
c23 0 41 -17 42 -39z" />
    <glyph glyph-name="perthousand" unicode="&#x2030;" horiz-adv-x="938"
d="M686 237v-120v-3c0 -46 30 -78 73 -78c45 0 73 33 73 87v4v121v2c0 53 -28 84 -73 84c-48 0 -73 -33 -73 -94v-3zM424 237v-120v-3c0 -46 31 -78 74 -78c45 0 72 33 72 87v4v121v2c0 53 -27 84 -73 84c-47 0 -73 -33 -73 -94v-3zM69 538v-120v-2c0 -46 30 -79 73 -79
c45 0 73 33 73 87v4v121v3c0 52 -27 84 -73 84c-48 0 -73 -33 -73 -94v-4zM873 258v-141v-3c0 -69 -49 -119 -115 -119c-63 0 -114 50 -114 113v4v142v3l15 60l49 46c24 8 43 12 56 12c58 0 109 -53 109 -113v-4zM539 658l-394 -658h-51l394 658h51zM612 258v-141v-3
c0 -69 -49 -119 -115 -119c-64 0 -114 50 -114 113v4v142v3c0 68 49 118 115 118c64 0 114 -51 114 -115v-2zM256 559v-141v-3c0 -68 -49 -119 -115 -119c-63 0 -113 50 -113 114v3v142v4c0 67 49 117 114 117c63 0 114 -50 114 -113v-4z" />
    <glyph glyph-name="questiondown" unicode="&#xbf;" horiz-adv-x="472"
d="M192 635v3c0 24 19 42 43 42c26 0 44 -17 44 -41c0 -25 -19 -45 -43 -45c-23 0 -42 18 -44 41zM99 313l53 45c29 24 39 43 40 79c1 5 1 5 1 6v5c3 21 15 31 37 31c28 0 37 -13 37 -55c0 -52 -9 -76 -35 -95c-2 -2 -3 -2 -3 -2l-70 -60c-42 -35 -54 -54 -54 -80
c0 -62 68 -117 145 -117c41 0 79 15 110 44l6 5c14 14 23 18 34 18c19 0 36 -16 36 -34c0 -11 -5 -22 -18 -35c-40 -45 -104 -71 -168 -71c-118 0 -222 86 -222 185c0 48 24 91 71 131z" />
    <glyph glyph-name="grave" unicode="`" horiz-adv-x="398"
d="M271 603l7 -3c14 -8 22 -19 22 -33c0 -19 -16 -35 -34 -35c-7 0 -14 2 -21 6l-6 3l-81 43l-6 3c-15 8 -22 19 -22 33c0 19 15 35 33 35c6 0 14 -2 22 -6c1 -1 3 -1 6 -3z" />
    <glyph glyph-name="acute" unicode="&#xb4;" horiz-adv-x="398"
d="M271 584l-79 -43l-6 -3c-9 -4 -16 -6 -23 -6c-18 0 -33 16 -33 35c0 14 7 25 22 33l6 3l80 43c4 3 6 3 7 3c7 4 15 6 21 6c18 0 34 -16 34 -35c0 -14 -7 -25 -22 -33z" />
    <glyph glyph-name="circumflex" unicode="&#x2c6;" horiz-adv-x="499"
d="M247 565l-80 -30c-5 -2 -10 -3 -14 -3c-18 0 -35 18 -35 36c0 14 10 27 23 32l92 33c5 2 10 3 13 3c2 0 6 -1 13 -3l88 -30c19 -6 27 -17 27 -34c0 -19 -16 -36 -36 -36c-2 1 -5 0 -8 2z" />
    <glyph glyph-name="tilde" unicode="&#x2dc;" horiz-adv-x="528"
d="M272 626l29 -15c9 -5 18 -7 26 -7c11 0 14 2 22 17c7 13 16 19 29 19c20 0 35 -16 35 -36c0 -39 -37 -71 -82 -71c-19 0 -34 4 -59 17c-32 15 -40 18 -50 18c-9 0 -15 -3 -20 -11l-8 -13c-5 -8 -13 -12 -24 -12c-21 0 -34 13 -34 35c0 40 36 72 80 72c17 0 39 -5 56 -13z
" />
    <glyph glyph-name="macron" unicode="&#xaf;" horiz-adv-x="413"
d="M275 533h-158h-7c-24 0 -40 14 -40 35s16 35 39 35h8h158h8c24 0 39 -14 39 -35s-16 -35 -39 -35h-8z" />
    <glyph glyph-name="breve" unicode="&#x2d8;" horiz-adv-x="444"
d="M224 532c-39 0 -78 17 -100 43c-6 7 -9 15 -9 22c0 18 14 32 32 32c9 0 12 -2 25 -14c16 -16 33 -23 52 -23c18 0 31 5 46 17c21 17 26 20 35 20c15 0 29 -15 29 -32c0 -9 -5 -19 -16 -30c-22 -21 -59 -35 -94 -35z" />
    <glyph glyph-name="dotaccent" unicode="&#x2d9;" horiz-adv-x="279"
d="M89 584c0 28 23 51 51 51s51 -23 51 -51s-23 -51 -51 -51s-51 23 -51 51z" />
    <glyph glyph-name="dieresis" unicode="&#xa8;" horiz-adv-x="493"
d="M270 584c0 28 23 51 51 51c29 0 52 -23 52 -51s-23 -51 -52 -51c-28 0 -51 23 -51 51zM118 584c0 28 23 51 52 51c28 0 51 -23 51 -51s-23 -51 -51 -51c-29 0 -52 23 -52 51z" />
    <glyph glyph-name="ring" unicode="&#x2da;" horiz-adv-x="316"
d="M127 594c0 -16 13 -29 29 -29c17 0 30 13 30 29s-13 29 -30 29c-16 0 -29 -13 -29 -29zM92 594c0 36 29 64 64 64c36 0 65 -28 65 -64c0 -35 -29 -64 -65 -64c-35 0 -64 29 -64 64z" />
    <glyph glyph-name="cedilla" unicode="&#xb8;" horiz-adv-x="314"
d="M193 0l-63 -83c-11 -14 -20 -19 -31 -19c-18 0 -33 15 -33 32c0 7 3 16 9 23l36 47h82z" />
    <glyph glyph-name="hungarumlaut" unicode="&#x2dd;" horiz-adv-x="686"
d="M361 602l110 33c4 1 8 1 12 1c20 0 35 -15 35 -34c0 -16 -9 -29 -26 -34l-108 -33c-6 -2 -12 -3 -17 -3c-20 0 -34 15 -34 36c0 17 10 29 28 34zM159 603l111 32c4 2 8 2 11 2c20 0 36 -15 36 -34c0 -17 -10 -29 -26 -34l-108 -34c-6 -2 -13 -3 -17 -3
c-20 0 -35 16 -35 36c0 17 11 30 28 35z" />
    <glyph glyph-name="ogonek" unicode="&#x2db;" horiz-adv-x="319"
d="M90 5h51c-10 -11 -15 -21 -15 -30c0 -13 11 -23 24 -23h3c0 0 4 1 11 2h8c15 1 25 -9 25 -22c0 -23 -26 -41 -61 -41c-42 0 -70 25 -70 62c0 21 6 35 24 52z" />
    <glyph glyph-name="caron" unicode="&#x2c7;" horiz-adv-x="499"
d="M245 606l83 29c2 2 5 1 8 2c20 0 37 -17 37 -36c0 -17 -9 -28 -27 -34l-89 -30c-7 -2 -11 -3 -13 -3c-3 0 -8 1 -13 3l-91 33c-14 5 -23 18 -23 32c0 19 16 36 34 36c5 0 9 -1 14 -3z" />
    <glyph glyph-name="emdash" unicode="&#x2014;" horiz-adv-x="687"
d="M687 289v-72h-687v72h687z" />
    <glyph glyph-name="AE" unicode="&#xc6;" horiz-adv-x="0"
 />
    <glyph glyph-name="ordfeminine" unicode="&#xaa;" horiz-adv-x="404"
d="M269 528c-9 -6 -19 -9 -38 -11l-37 -3c-52 -5 -76 -22 -76 -54s22 -51 61 -51c59 0 90 34 90 100v19zM355 319v-38h-293v38h293zM334 379h-56c-5 9 -6 12 -6 20l-1 9l-1 10c-38 -38 -58 -47 -103 -47c-67 0 -106 32 -106 87c0 54 42 84 127 92l41 3c32 3 41 10 41 32
c0 37 -23 55 -68 55c-47 0 -67 -18 -73 -63h-52c5 68 47 102 127 102c82 0 120 -30 120 -96v-10l-1 -34v-35v-48c0 -43 2 -57 11 -77z" />
    <glyph glyph-name="Oslash" unicode="&#xd8;" horiz-adv-x="0"
 />
    <glyph glyph-name="OE" unicode="&#x152;" horiz-adv-x="0"
 />
    <glyph glyph-name="ordmasculine" unicode="&#xba;" horiz-adv-x="415"
d="M207 637c-56 0 -91 -43 -91 -112s35 -112 92 -112c56 0 91 43 91 111c0 70 -35 113 -92 113zM357 319v-38h-293v38h293zM209 680c87 0 145 -62 145 -156c0 -92 -58 -153 -147 -153c-88 0 -147 61 -147 154c0 92 60 155 149 155z" />
    <glyph glyph-name="ae" unicode="&#xe6;" horiz-adv-x="0"
 />
    <glyph glyph-name="dotlessi" unicode="&#x131;" horiz-adv-x="206"
d="M64 43v374v6c0 23 16 41 38 41s38 -19 38 -44v-5v-365v-4c0 -34 -14 -52 -40 -52c-23 0 -36 15 -36 44v5z" />
    <glyph glyph-name="oslash" unicode="&#xf8;" horiz-adv-x="0"
 />
    <glyph glyph-name="oe" unicode="&#x153;" horiz-adv-x="0"
 />
    <glyph glyph-name="germandbls" unicode="&#xdf;" horiz-adv-x="0"
 />
    <glyph glyph-name="Adieresis" unicode="&#xc4;" horiz-adv-x="560"
d="M172 249l-1 -3c-1 -6 -2 -6 -2 -7c0 -5 4 -7 14 -7h196h3v0c5 3 7 2 7 6c0 2 0 2 -1 4c0 1 0 1 -1 3l-103 261v1c-1 9 -4 8 -6 9c-2 0 -3 0 -4 -3l-2 -4l-1 -3zM313 634l229 -570c5 -13 7 -22 7 -29c0 -20 -18 -36 -39 -36c-16 0 -28 9 -36 30l-1 4l-46 113l-1 4
c-1 4 -1 4 -2 4c-1 4 -3 3 -5 4h-8h-3h-253h-6h-1c-10 0 -12 -2 -15 -10l-1 -3l-45 -117c-8 -22 -20 -30 -39 -30s-37 16 -37 34c0 3 0 6 1 9c1 1 2 5 4 11c0 4 1 3 1 4l223 582c10 23 20 33 35 33c18 0 27 -9 37 -33zM311 789c0 28 23 51 51 51c29 0 52 -23 52 -51
s-23 -51 -52 -51c-28 0 -51 23 -51 51zM159 789c0 28 23 51 52 51c28 0 51 -23 51 -51s-23 -51 -51 -51c-29 0 -52 23 -52 51z" />
    <glyph glyph-name="Aring" unicode="&#xc5;" horiz-adv-x="560"
d="M172 249l-1 -3c-1 -6 -2 -6 -2 -7c0 -5 4 -7 14 -7h196h3v0c5 3 7 2 7 6c0 2 0 2 -1 4c0 1 0 1 -1 3l-103 261v1c-1 9 -4 8 -6 9c-2 0 -3 0 -4 -3l-2 -4l-1 -3zM313 634l229 -570c5 -13 7 -22 7 -29c0 -20 -18 -36 -39 -36c-16 0 -28 9 -36 30l-1 4l-46 113l-1 4
c-1 4 -1 4 -2 4c-1 4 -3 3 -5 4h-8h-3h-253h-6h-1c-10 0 -12 -2 -15 -10l-1 -3l-45 -117c-8 -22 -20 -30 -39 -30s-37 16 -37 34c0 3 0 6 1 9c1 1 2 5 4 11c0 4 1 3 1 4l223 582c10 23 20 33 35 33c18 0 27 -9 37 -33zM248 802c0 -16 13 -29 29 -29c17 0 30 13 30 29
s-13 29 -30 29c-16 0 -29 -13 -29 -29zM213 802c0 36 29 64 64 64c36 0 65 -28 65 -64c0 -35 -29 -64 -65 -64c-35 0 -64 29 -64 64z" />
    <glyph glyph-name="Ccedilla" unicode="&#xc7;" horiz-adv-x="527"
d="M320 0l-63 -83c-11 -13 -20 -19 -32 -19c-17 0 -32 15 -32 32c0 7 3 16 9 23l35 46c-62 2 -145 61 -177 126c-19 38 -26 70 -26 124v2l1 186v4c0 137 105 242 242 242c78 0 151 -37 191 -97c11 -17 22 -37 31 -61c6 -14 8 -21 8 -29c0 -20 -18 -36 -40 -36
c-18 0 -24 6 -35 34c-28 73 -86 116 -158 116c-92 0 -164 -76 -164 -172v-3v-185v-5c0 -102 69 -175 163 -175c57 0 103 24 137 71l6 9c13 17 21 22 35 22c20 0 37 -15 37 -34c0 -12 -5 -25 -19 -43c-36 -50 -89 -84 -149 -95z" />
    <glyph glyph-name="Eacute" unicode="&#xc9;" horiz-adv-x="587"
d="M141 675l358 -2h4c27 0 43 -14 43 -37c0 -24 -15 -36 -42 -36h-5h-334h-6c-11 0 -15 -3 -15 -11v0v-3v-198v-3c0 -9 3 -11 13 -11h4l267 -1h5c27 0 44 -13 44 -34c0 -23 -16 -39 -39 -39h-4l-278 1h-4c-6 0 -10 -3 -10 -7v-4v-2l-1 -201v-5c0 -4 4 -7 10 -7h5h333h7
c31 0 48 -13 48 -37c0 -22 -17 -38 -38 -38h-7h-379h-6c-36 0 -47 10 -47 46v1l3 570v5c0 44 11 53 65 53h6zM356 794l-79 -43l-6 -3c-9 -4 -16 -6 -23 -6c-18 0 -33 16 -33 35c0 14 7 25 22 33l6 3l80 43c4 3 6 3 7 3c7 4 15 6 21 6c18 0 34 -16 34 -35
c0 -14 -7 -25 -22 -33z" />
    <glyph glyph-name="Ntilde" unicode="&#xd1;" horiz-adv-x="611"
d="M542 51v-7c0 -29 -10 -44 -31 -44c-14 0 -28 9 -38 25l-2 3l-319 464c0 1 0 1 -1 2c-1 3 -2 3 -4 3c-2 -2 -4 -2 -4 -7v-3l-1 -444v-3c0 -27 -14 -42 -38 -42c-25 0 -37 14 -37 46v3l1 562v3v6c0 37 9 50 36 50c15 0 25 -6 37 -25c2 -4 4 -4 4 -5l313 -457l1 -1
c2 -3 4 -3 5 -3c2 2 3 2 3 6v5v431v5c0 32 13 47 39 47c24 0 37 -16 37 -44v-1zM304 832l29 -15c9 -5 18 -7 26 -7c11 0 14 2 22 17c7 13 16 19 29 19c20 0 35 -16 35 -36c0 -39 -37 -71 -82 -71c-19 0 -34 4 -59 17c-32 15 -40 18 -50 18c-9 0 -15 -3 -20 -11l-8 -13
c-5 -8 -13 -12 -24 -12c-21 0 -34 13 -34 35c0 40 36 72 80 72c17 0 39 -5 56 -13z" />
    <glyph glyph-name="Odieresis" unicode="&#xd6;" horiz-adv-x="555"
d="M108 420v-158v-5c0 -115 67 -190 169 -190c103 0 170 76 170 192v6v140v7c0 92 -24 141 -85 174c-25 14 -53 21 -82 21c-97 0 -172 -79 -172 -182v-5zM521 402v-141v-4c0 -153 -103 -263 -245 -263c-85 0 -172 50 -210 121c-21 38 -32 86 -32 138v5v168v5
c0 138 109 248 246 248c89 0 177 -52 212 -125c19 -39 29 -89 29 -144v-8zM304 797c0 28 23 51 51 51c29 0 52 -23 52 -51s-23 -51 -52 -51c-28 0 -51 23 -51 51zM152 797c0 28 23 51 52 51c28 0 51 -23 51 -51s-23 -51 -51 -51c-29 0 -52 23 -52 51z" />
    <glyph glyph-name="Udieresis" unicode="&#xdc;" horiz-adv-x="610"
d="M66 252v373v6c0 29 14 47 37 47c22 0 38 -18 38 -43v-4v-374v-3c0 -78 22 -125 75 -158c26 -17 57 -25 89 -25c80 0 149 58 161 136c2 18 3 42 3 72v4l1 344v4c0 29 15 46 39 46c22 0 35 -15 35 -40v-6v-377v-6c0 -146 -101 -250 -240 -250c-138 0 -238 105 -238 250v4z
M330 796c0 28 23 51 51 51c29 0 52 -23 52 -51s-23 -51 -52 -51c-28 0 -51 23 -51 51zM178 796c0 28 23 51 52 51c28 0 51 -23 51 -51s-23 -51 -51 -51c-29 0 -52 23 -52 51z" />
    <glyph glyph-name="aacute" unicode="&#xe1;" horiz-adv-x="530"
d="M378 247c0 56 -6 77 -30 106c-25 31 -63 49 -102 49c-64 0 -120 -48 -132 -111c-2 -11 -3 -29 -3 -50c0 -37 4 -67 11 -86c18 -48 70 -82 125 -82c45 0 87 22 108 56c19 32 23 50 23 108v10zM454 114v-3c0 -18 5 -28 18 -40l4 -4c8 -6 11 -15 11 -24
c0 -22 -15 -40 -34 -40c-25 0 -46 15 -63 43c-1 3 -3 3 -5 3s-4 0 -8 -4c-39 -31 -83 -46 -130 -46c-62 0 -126 30 -165 78c-34 42 -48 88 -48 161c0 72 14 116 50 160c39 49 98 76 163 76c42 0 75 -10 117 -36c2 -2 4 -2 5 -2c1 -1 3 -1 5 -1c4 -1 6 1 8 9
c5 17 18 28 35 28c22 0 37 -16 37 -39v-319zM326 593l-79 -43l-6 -3c-9 -4 -16 -6 -23 -6c-18 0 -33 16 -33 35c0 14 7 25 22 33l6 3l80 43c4 3 6 3 7 3c7 4 15 6 21 6c18 0 34 -16 34 -35c0 -14 -7 -25 -22 -33z" />
    <glyph glyph-name="agrave" unicode="&#xe0;" horiz-adv-x="530"
d="M378 247c0 56 -6 77 -30 106c-25 31 -63 49 -102 49c-64 0 -120 -48 -132 -111c-2 -11 -3 -29 -3 -50c0 -37 4 -67 11 -86c18 -48 70 -82 125 -82c45 0 87 22 108 56c19 32 23 50 23 108v10zM454 114v-3c0 -18 5 -28 18 -40l4 -4c8 -6 11 -15 11 -24
c0 -22 -15 -40 -34 -40c-25 0 -46 15 -63 43c-1 3 -3 3 -5 3s-4 0 -8 -4c-39 -31 -83 -46 -130 -46c-62 0 -126 30 -165 78c-34 42 -48 88 -48 161c0 72 14 116 50 160c39 49 98 76 163 76c42 0 75 -10 117 -36c2 -2 4 -2 5 -2c1 -1 3 -1 5 -1c4 -1 6 1 8 9
c5 17 18 28 35 28c22 0 37 -16 37 -39v-319zM301 612l7 -3c14 -8 22 -19 22 -33c0 -19 -16 -35 -34 -35c-7 0 -14 2 -21 6l-6 3l-81 43l-6 3c-15 8 -22 19 -22 33c0 19 15 35 33 35c6 0 14 -2 22 -6c1 -1 3 -1 6 -3z" />
    <glyph glyph-name="acircumflex" unicode="&#xe2;" horiz-adv-x="530"
d="M378 247c0 56 -6 77 -30 106c-25 31 -63 49 -102 49c-64 0 -120 -48 -132 -111c-2 -11 -3 -29 -3 -50c0 -37 4 -67 11 -86c18 -48 70 -82 125 -82c45 0 87 22 108 56c19 32 23 50 23 108v10zM454 114v-3c0 -18 5 -28 18 -40l4 -4c8 -6 11 -15 11 -24
c0 -22 -15 -40 -34 -40c-25 0 -46 15 -63 43c-1 3 -3 3 -5 3s-4 0 -8 -4c-39 -31 -83 -46 -130 -46c-62 0 -126 30 -165 78c-34 42 -48 88 -48 161c0 72 14 116 50 160c39 49 98 76 163 76c42 0 75 -10 117 -36c2 -2 4 -2 5 -2c1 -1 3 -1 5 -1c4 -1 6 1 8 9
c5 17 18 28 35 28c22 0 37 -16 37 -39v-319zM249 574l-80 -30c-5 -2 -10 -3 -14 -3c-18 0 -35 18 -35 36c0 14 10 27 23 32l92 33c5 2 10 3 13 3c2 0 6 -1 13 -3l88 -30c19 -6 27 -17 27 -34c0 -19 -16 -36 -36 -36c-2 1 -5 0 -8 2z" />
    <glyph glyph-name="adieresis" unicode="&#xe4;" horiz-adv-x="530"
d="M378 247c0 56 -6 77 -30 106c-25 31 -63 49 -102 49c-64 0 -120 -48 -132 -111c-2 -11 -3 -29 -3 -50c0 -37 4 -67 11 -86c18 -48 70 -82 125 -82c45 0 87 22 108 56c19 32 23 50 23 108v10zM454 114v-3c0 -18 5 -28 18 -40l4 -4c8 -6 11 -15 11 -24
c0 -22 -15 -40 -34 -40c-25 0 -46 15 -63 43c-1 3 -3 3 -5 3s-4 0 -8 -4c-39 -31 -83 -46 -130 -46c-62 0 -126 30 -165 78c-34 42 -48 88 -48 161c0 72 14 116 50 160c39 49 98 76 163 76c42 0 75 -10 117 -36c2 -2 4 -2 5 -2c1 -1 3 -1 5 -1c4 -1 6 1 8 9
c5 17 18 28 35 28c22 0 37 -16 37 -39v-319zM278 592c0 28 23 51 51 51c29 0 52 -23 52 -51s-23 -51 -52 -51c-28 0 -51 23 -51 51zM126 592c0 28 23 51 52 51c28 0 51 -23 51 -51s-23 -51 -51 -51c-29 0 -52 23 -52 51z" />
    <glyph glyph-name="atilde" unicode="&#xe3;" horiz-adv-x="530"
d="M378 247c0 56 -6 77 -30 106c-25 31 -63 49 -102 49c-64 0 -120 -48 -132 -111c-2 -11 -3 -29 -3 -50c0 -37 4 -67 11 -86c18 -48 70 -82 125 -82c45 0 87 22 108 56c19 32 23 50 23 108v10zM454 114v-3c0 -18 5 -28 18 -40l4 -4c8 -6 11 -15 11 -24
c0 -22 -15 -40 -34 -40c-25 0 -46 15 -63 43c-1 3 -3 3 -5 3s-4 0 -8 -4c-39 -31 -83 -46 -130 -46c-62 0 -126 30 -165 78c-34 42 -48 88 -48 161c0 72 14 116 50 160c39 49 98 76 163 76c42 0 75 -10 117 -36c2 -2 4 -2 5 -2c1 -1 3 -1 5 -1c4 -1 6 1 8 9
c5 17 18 28 35 28c22 0 37 -16 37 -39v-319zM257 635l29 -15c9 -5 18 -7 26 -7c11 0 14 2 22 17c7 13 16 19 29 19c20 0 35 -16 35 -36c0 -39 -37 -71 -82 -71c-19 0 -34 4 -59 17c-32 15 -40 18 -50 18c-9 0 -15 -3 -20 -11l-8 -13c-5 -8 -13 -12 -24 -12
c-21 0 -34 13 -34 35c0 40 36 72 80 72c17 0 39 -5 56 -13z" />
    <glyph glyph-name="aring" unicode="&#xe5;" horiz-adv-x="530"
d="M378 247c0 56 -6 77 -30 106c-25 31 -63 49 -102 49c-64 0 -120 -48 -132 -111c-2 -11 -3 -29 -3 -50c0 -37 4 -67 11 -86c18 -48 70 -82 125 -82c45 0 87 22 108 56c19 32 23 50 23 108v10zM454 114v-3c0 -18 5 -28 18 -40l4 -4c8 -6 11 -15 11 -24
c0 -22 -15 -40 -34 -40c-25 0 -46 15 -63 43c-1 3 -3 3 -5 3s-4 0 -8 -4c-39 -31 -83 -46 -130 -46c-62 0 -126 30 -165 78c-34 42 -48 88 -48 161c0 72 14 116 50 160c39 49 98 76 163 76c42 0 75 -10 117 -36c2 -2 4 -2 5 -2c1 -1 3 -1 5 -1c4 -1 6 1 8 9
c5 17 18 28 35 28c22 0 37 -16 37 -39v-319zM229 605c0 -16 13 -29 29 -29c17 0 30 13 30 29s-13 29 -30 29c-16 0 -29 -13 -29 -29zM194 605c0 36 29 64 64 64c36 0 65 -28 65 -64c0 -35 -29 -64 -65 -64c-35 0 -64 29 -64 64z" />
    <glyph glyph-name="ccedilla" unicode="&#xe7;" horiz-adv-x="439"
d="M285 -3l-63 -82c-11 -14 -20 -20 -31 -20c-18 0 -33 15 -33 33c0 7 4 16 9 22l36 47c-29 3 -40 6 -68 24c-74 48 -101 104 -101 207c0 107 29 166 104 212c32 20 69 30 107 30c55 0 108 -22 147 -61c11 -11 16 -20 16 -30c0 -21 -17 -37 -39 -37c-9 0 -14 2 -22 9l-8 7
c-29 26 -57 37 -91 37c-57 0 -113 -38 -127 -86c-6 -19 -9 -45 -9 -78c0 -79 14 -114 60 -145c20 -14 45 -22 70 -22c37 0 73 15 101 43c15 14 19 16 31 16c21 0 36 -15 36 -35c0 -32 -58 -75 -123 -91h-2z" />
    <glyph glyph-name="eacute" unicode="&#xe9;" horiz-adv-x="488"
d="M130 271l226 1c17 0 19 1 19 8c0 61 -63 120 -130 120c-69 0 -133 -59 -133 -122c0 -5 3 -7 9 -7h9zM130 196h-3h-7c-5 -1 -6 -1 -6 -6c-1 -61 63 -119 130 -119c35 0 65 11 95 36c11 9 17 11 28 11c21 0 35 -14 35 -36c0 -13 -4 -22 -18 -33c-42 -35 -88 -52 -141 -52
c-123 1 -209 94 -209 231c0 42 8 95 19 123c27 71 108 123 192 123c116 0 209 -93 209 -210c0 -53 -13 -67 -59 -67zM317 593l-79 -43l-6 -3c-9 -4 -16 -6 -23 -6c-18 0 -33 16 -33 35c0 14 7 25 22 33l6 3l80 43c4 3 6 3 7 3c7 4 15 6 21 6c18 0 34 -16 34 -35
c0 -14 -7 -25 -22 -33z" />
    <glyph glyph-name="egrave" unicode="&#xe8;" horiz-adv-x="488"
d="M130 271l226 1c17 0 19 1 19 8c0 61 -63 120 -130 120c-69 0 -133 -59 -133 -122c0 -5 3 -7 9 -7h9zM130 196h-3h-7c-5 -1 -6 -1 -6 -6c-1 -61 63 -119 130 -119c35 0 65 11 95 36c11 9 17 11 28 11c21 0 35 -14 35 -36c0 -13 -4 -22 -18 -33c-42 -35 -88 -52 -141 -52
c-123 1 -209 94 -209 231c0 42 8 95 19 123c27 71 108 123 192 123c116 0 209 -93 209 -210c0 -53 -13 -67 -59 -67zM306 612l7 -3c14 -8 22 -19 22 -33c0 -19 -16 -35 -34 -35c-7 0 -14 2 -21 6l-6 3l-81 43l-6 3c-15 8 -22 19 -22 33c0 19 15 35 33 35c6 0 14 -2 22 -6
c1 -1 3 -1 6 -3z" />
    <glyph glyph-name="ecircumflex" unicode="&#xea;" horiz-adv-x="488"
d="M130 271l226 1c17 0 19 1 19 8c0 61 -63 120 -130 120c-69 0 -133 -59 -133 -122c0 -5 3 -7 9 -7h9zM130 196h-3h-7c-5 -1 -6 -1 -6 -6c-1 -61 63 -119 130 -119c35 0 65 11 95 36c11 9 17 11 28 11c21 0 35 -14 35 -36c0 -13 -4 -22 -18 -33c-42 -35 -88 -52 -141 -52
c-123 1 -209 94 -209 231c0 42 8 95 19 123c27 71 108 123 192 123c116 0 209 -93 209 -210c0 -53 -13 -67 -59 -67zM247 574l-80 -30c-5 -2 -10 -3 -14 -3c-18 0 -35 18 -35 36c0 14 10 27 23 32l92 33c5 2 10 3 13 3c2 0 6 -1 13 -3l88 -30c19 -6 27 -17 27 -34
c0 -19 -16 -36 -36 -36c-2 1 -5 0 -8 2z" />
    <glyph glyph-name="edieresis" unicode="&#xeb;" horiz-adv-x="488"
d="M130 271l226 1c17 0 19 1 19 8c0 61 -63 120 -130 120c-69 0 -133 -59 -133 -122c0 -5 3 -7 9 -7h9zM130 196h-3h-7c-5 -1 -6 -1 -6 -6c-1 -61 63 -119 130 -119c35 0 65 11 95 36c11 9 17 11 28 11c21 0 35 -14 35 -36c0 -13 -4 -22 -18 -33c-42 -35 -88 -52 -141 -52
c-123 1 -209 94 -209 231c0 42 8 95 19 123c27 71 108 123 192 123c116 0 209 -93 209 -210c0 -53 -13 -67 -59 -67zM270 592c0 28 23 51 51 51c29 0 52 -23 52 -51s-23 -51 -52 -51c-28 0 -51 23 -51 51zM118 592c0 28 23 51 52 51c28 0 51 -23 51 -51s-23 -51 -51 -51
c-29 0 -52 23 -52 51z" />
    <glyph glyph-name="iacute" unicode="&#xed;" horiz-adv-x="206"
d="M64 43v374v6c0 23 16 41 38 41s38 -19 38 -44v-5v-365v-4c0 -34 -14 -52 -40 -52c-23 0 -36 15 -36 44v5zM165 583l-79 -43l-6 -3c-9 -4 -16 -6 -23 -6c-18 0 -33 16 -33 35c0 14 7 25 22 33l6 3l80 43c4 3 6 3 7 3c7 4 15 6 21 6c18 0 34 -16 34 -35
c0 -14 -7 -25 -22 -33z" />
    <glyph glyph-name="igrave" unicode="&#xec;" horiz-adv-x="206"
d="M64 43v374v6c0 23 16 41 38 41s38 -19 38 -44v-5v-365v-4c0 -34 -14 -52 -40 -52c-23 0 -36 15 -36 44v5zM162 602l7 -3c14 -8 22 -19 22 -33c0 -19 -16 -35 -34 -35c-7 0 -14 2 -21 6l-6 3l-81 43l-6 3c-15 8 -22 19 -22 33c0 19 15 35 33 35c6 0 14 -2 22 -6
c1 -1 3 -1 6 -3z" />
    <glyph glyph-name="icircumflex" unicode="&#xee;" horiz-adv-x="206"
d="M64 43v374v6c0 23 16 41 38 41s38 -19 38 -44v-5v-365v-4c0 -34 -14 -52 -40 -52c-23 0 -36 15 -36 44v5zM106 564l-80 -30c-5 -2 -10 -3 -14 -3c-18 0 -35 18 -35 36c0 14 10 27 23 32l92 33c5 2 10 3 13 3c2 0 6 -1 13 -3l88 -30c19 -6 27 -17 27 -34
c0 -19 -16 -36 -36 -36c-2 1 -5 0 -8 2z" />
    <glyph glyph-name="idieresis" unicode="&#xef;" horiz-adv-x="206"
d="M64 43v374v6c0 23 16 41 38 41s38 -19 38 -44v-5v-365v-4c0 -34 -14 -52 -40 -52c-23 0 -36 15 -36 44v5zM130 582c0 28 23 51 51 51c29 0 52 -23 52 -51s-23 -51 -52 -51c-28 0 -51 23 -51 51zM-22 582c0 28 23 51 52 51c28 0 51 -23 51 -51s-23 -51 -51 -51
c-29 0 -52 23 -52 51z" />
    <glyph glyph-name="ntilde" unicode="&#xf1;" horiz-adv-x="536"
d="M476 256v-205v-4c0 -30 -14 -47 -39 -47c-26 0 -39 13 -39 44v3v203v5c0 86 -53 143 -132 143c-56 0 -106 -36 -119 -84c-6 -21 -8 -49 -8 -83v-6v-175v-10c0 -27 -16 -44 -41 -44c-24 0 -38 16 -38 45v5v359v5c0 44 11 60 40 60c19 0 35 -14 37 -32c1 -5 2 -5 4 -5
c2 1 5 1 9 4c35 27 75 41 119 41c119 0 207 -93 207 -217v-5zM264 639l29 -15c9 -5 18 -7 26 -7c11 0 14 2 22 17c7 13 16 19 29 19c20 0 35 -16 35 -36c0 -39 -37 -71 -82 -71c-19 0 -34 4 -59 17c-32 15 -40 18 -50 18c-9 0 -15 -3 -20 -11l-8 -13c-5 -8 -13 -12 -24 -12
c-21 0 -34 13 -34 35c0 40 36 72 80 72c17 0 39 -5 56 -13z" />
    <glyph glyph-name="oacute" unicode="&#xf3;" horiz-adv-x="487"
d="M377 253c-2 97 -49 151 -131 151c-66 0 -122 -43 -132 -100c-2 -11 -3 -27 -3 -49c0 -27 2 -59 4 -73c9 -61 65 -108 129 -108c60 0 114 42 127 99c4 19 6 43 6 71v9zM453 245v-8c0 -142 -85 -238 -210 -238c-93 0 -177 62 -199 148c-6 26 -10 58 -10 94
c0 106 28 162 106 209c32 20 68 30 105 30c119 0 205 -97 208 -235zM310 599l-79 -43l-6 -3c-9 -4 -16 -6 -23 -6c-18 0 -33 16 -33 35c0 14 7 25 22 33l6 3l80 43c4 3 6 3 7 3c7 4 15 6 21 6c18 0 34 -16 34 -35c0 -14 -7 -25 -22 -33z" />
    <glyph glyph-name="ograve" unicode="&#xf2;" horiz-adv-x="487"
d="M377 253c-2 97 -49 151 -131 151c-66 0 -122 -43 -132 -100c-2 -11 -3 -27 -3 -49c0 -27 2 -59 4 -73c9 -61 65 -108 129 -108c60 0 114 42 127 99c4 19 6 43 6 71v9zM453 245v-8c0 -142 -85 -238 -210 -238c-93 0 -177 62 -199 148c-6 26 -10 58 -10 94
c0 106 28 162 106 209c32 20 68 30 105 30c119 0 205 -97 208 -235zM308 618l7 -3c14 -8 22 -19 22 -33c0 -19 -16 -35 -34 -35c-7 0 -14 2 -21 6l-6 3l-81 43l-6 3c-15 8 -22 19 -22 33c0 19 15 35 33 35c6 0 14 -2 22 -6c1 -1 3 -1 6 -3z" />
    <glyph glyph-name="ocircumflex" unicode="&#xf4;" horiz-adv-x="487"
d="M377 253c-2 97 -49 151 -131 151c-66 0 -122 -43 -132 -100c-2 -11 -3 -27 -3 -49c0 -27 2 -59 4 -73c9 -61 65 -108 129 -108c60 0 114 42 127 99c4 19 6 43 6 71v9zM453 245v-8c0 -142 -85 -238 -210 -238c-93 0 -177 62 -199 148c-6 26 -10 58 -10 94
c0 106 28 162 106 209c32 20 68 30 105 30c119 0 205 -97 208 -235zM244 580l-80 -30c-5 -2 -10 -3 -14 -3c-18 0 -35 18 -35 36c0 14 10 27 23 32l92 33c5 2 10 3 13 3c2 0 6 -1 13 -3l88 -30c19 -6 27 -17 27 -34c0 -19 -16 -36 -36 -36c-2 1 -5 0 -8 2z" />
    <glyph glyph-name="odieresis" unicode="&#xf6;" horiz-adv-x="487"
d="M377 253c-2 97 -49 151 -131 151c-66 0 -122 -43 -132 -100c-2 -11 -3 -27 -3 -49c0 -27 2 -59 4 -73c9 -61 65 -108 129 -108c60 0 114 42 127 99c4 19 6 43 6 71v9zM453 245v-8c0 -142 -85 -238 -210 -238c-93 0 -177 62 -199 148c-6 26 -10 58 -10 94
c0 106 28 162 106 209c32 20 68 30 105 30c119 0 205 -97 208 -235zM276 598c0 28 23 51 51 51c29 0 52 -23 52 -51s-23 -51 -52 -51c-28 0 -51 23 -51 51zM124 598c0 28 23 51 52 51c28 0 51 -23 51 -51s-23 -51 -51 -51c-29 0 -52 23 -52 51z" />
    <glyph glyph-name="otilde" unicode="&#xf5;" horiz-adv-x="487"
d="M377 253c-2 97 -49 151 -131 151c-66 0 -122 -43 -132 -100c-2 -11 -3 -27 -3 -49c0 -27 2 -59 4 -73c9 -61 65 -108 129 -108c60 0 114 42 127 99c4 19 6 43 6 71v9zM453 245v-8c0 -142 -85 -238 -210 -238c-93 0 -177 62 -199 148c-6 26 -10 58 -10 94
c0 106 28 162 106 209c32 20 68 30 105 30c119 0 205 -97 208 -235zM241 641l29 -15c9 -5 18 -7 26 -7c11 0 14 2 22 17c7 13 16 19 29 19c20 0 35 -16 35 -36c0 -39 -37 -71 -82 -71c-19 0 -34 4 -59 17c-32 15 -40 18 -50 18c-9 0 -15 -3 -20 -11l-8 -13
c-5 -8 -13 -12 -24 -12c-21 0 -34 13 -34 35c0 40 36 72 80 72c17 0 39 -5 56 -13z" />
    <glyph glyph-name="uacute" unicode="&#xfa;" horiz-adv-x="536"
d="M59 214v196v4c0 30 15 48 39 48c26 0 39 -15 39 -45v-3v-199v-5c0 -85 53 -143 132 -143c56 0 107 36 120 85c5 20 8 48 8 83v6v171v9c0 27 16 45 40 45s38 -17 38 -46v-4v-351v-4c0 -45 -11 -61 -40 -61c-18 0 -34 14 -37 32c0 5 -1 5 -4 5c-1 -1 -4 -1 -8 -4
c-35 -27 -76 -40 -120 -40c-119 0 -207 92 -207 216v5zM326 585l-79 -43l-6 -3c-9 -4 -16 -6 -23 -6c-18 0 -33 16 -33 35c0 14 7 25 22 33l6 3l80 43c4 3 6 3 7 3c7 4 15 6 21 6c18 0 34 -16 34 -35c0 -14 -7 -25 -22 -33z" />
    <glyph glyph-name="ugrave" unicode="&#xf9;" horiz-adv-x="536"
d="M59 214v196v4c0 30 15 48 39 48c26 0 39 -15 39 -45v-3v-199v-5c0 -85 53 -143 132 -143c56 0 107 36 120 85c5 20 8 48 8 83v6v171v9c0 27 16 45 40 45s38 -17 38 -46v-4v-351v-4c0 -45 -11 -61 -40 -61c-18 0 -34 14 -37 32c0 5 -1 5 -4 5c-1 -1 -4 -1 -8 -4
c-35 -27 -76 -40 -120 -40c-119 0 -207 92 -207 216v5zM329 604l7 -3c14 -8 22 -19 22 -33c0 -19 -16 -35 -34 -35c-7 0 -14 2 -21 6l-6 3l-81 43l-6 3c-15 8 -22 19 -22 33c0 19 15 35 33 35c6 0 14 -2 22 -6c1 -1 3 -1 6 -3z" />
    <glyph glyph-name="ucircumflex" unicode="&#xfb;" horiz-adv-x="536"
d="M59 214v196v4c0 30 15 48 39 48c26 0 39 -15 39 -45v-3v-199v-5c0 -85 53 -143 132 -143c56 0 107 36 120 85c5 20 8 48 8 83v6v171v9c0 27 16 45 40 45s38 -17 38 -46v-4v-351v-4c0 -45 -11 -61 -40 -61c-18 0 -34 14 -37 32c0 5 -1 5 -4 5c-1 -1 -4 -1 -8 -4
c-35 -27 -76 -40 -120 -40c-119 0 -207 92 -207 216v5zM274 566l-80 -30c-5 -2 -10 -3 -14 -3c-18 0 -35 18 -35 36c0 14 10 27 23 32l92 33c5 2 10 3 13 3c2 0 6 -1 13 -3l88 -30c19 -6 27 -17 27 -34c0 -19 -16 -36 -36 -36c-2 1 -5 0 -8 2z" />
    <glyph glyph-name="udieresis" unicode="&#xfc;" horiz-adv-x="536"
d="M59 214v196v4c0 30 15 48 39 48c26 0 39 -15 39 -45v-3v-199v-5c0 -85 53 -143 132 -143c56 0 107 36 120 85c5 20 8 48 8 83v6v171v9c0 27 16 45 40 45s38 -17 38 -46v-4v-351v-4c0 -45 -11 -61 -40 -61c-18 0 -34 14 -37 32c0 5 -1 5 -4 5c-1 -1 -4 -1 -8 -4
c-35 -27 -76 -40 -120 -40c-119 0 -207 92 -207 216v5zM296 584c0 28 23 51 51 51c29 0 52 -23 52 -51s-23 -51 -52 -51c-28 0 -51 23 -51 51zM144 584c0 28 23 51 52 51c28 0 51 -23 51 -51s-23 -51 -51 -51c-29 0 -52 23 -52 51z" />
    <glyph glyph-name="degree" unicode="&#xb0;"
d="M249 633c-54 0 -97 -44 -97 -99c0 -54 44 -98 97 -98c54 0 98 44 98 98c0 55 -44 99 -98 99zM250 680c82 0 149 -65 149 -146c0 -80 -67 -145 -149 -145c-83 0 -149 65 -149 145c0 81 66 146 149 146z" />
    <glyph glyph-name="register"
d="M204 636v-60h45c35 0 51 10 51 30c0 21 -15 30 -47 30h-49zM167 666h92c50 0 77 -20 77 -57c0 -18 -5 -28 -22 -42l1 -10l9 -11c2 -2 3 -6 5 -13c2 -5 3 -10 3 -15l2 -14l1 -13l1 -8c0 -4 0 -5 4 -17h-36c-4 9 -5 11 -6 33c-3 42 -9 49 -49 49h-44v-81h-38v199zM250 724
c-89 0 -161 -71 -161 -160c0 -88 72 -160 161 -160c88 0 160 72 160 160c0 89 -71 160 -160 160zM250 759c108 0 196 -87 196 -195c0 -107 -88 -194 -196 -194c-109 0 -197 87 -197 194c0 108 88 195 197 195z" />
    <glyph glyph-name="copyright" unicode="&#xa9;" horiz-adv-x="779"
d="M579 296c-8 -102 -81 -168 -185 -168c-116 0 -195 84 -195 208s81 209 199 209c94 0 169 -59 176 -141h-58c-12 57 -57 91 -120 91c-83 0 -137 -63 -137 -159s54 -158 136 -158c70 0 116 43 125 118h59zM388 634c-164 0 -298 -135 -298 -301s134 -301 298 -301
c165 0 298 135 298 301c-1 166 -133 301 -298 301zM389 679c192 0 347 -155 347 -346c0 -192 -156 -346 -347 -346c-192 0 -347 155 -347 346s155 346 347 346z" />
    <glyph glyph-name="trademark" unicode="&#x2122;" horiz-adv-x="853"
d="M334 666v-50h-131v-349h-60v349h-132v50h323zM801 666v-399h-54v342l-139 -343h-35l-135 342v-342h-56v400h87l121 -294l125 294h86z" />
    <glyph glyph-name="notequal" unicode="&#x2260;"
d="M274 447l61 122l56 -23l-49 -99h151v-60h-181l-53 -106h234v-61h-264l-68 -134l-56 23l56 111h-154v61h184l53 105h-237v61h267z" />
    <glyph glyph-name="infinity" unicode="&#x221e;" horiz-adv-x="666"
d="M294 336c-53 68 -94 95 -145 95c-54 0 -92 -39 -92 -95s38 -95 91 -95c49 0 94 29 146 95zM371 336c54 -67 97 -95 146 -95c55 0 91 37 91 93c0 58 -37 97 -93 97c-51 0 -86 -23 -144 -95zM333 383c57 75 112 109 182 109c91 0 153 -63 153 -154
c0 -94 -61 -158 -151 -158c-65 0 -127 37 -184 109c-60 -77 -114 -109 -182 -109c-90 0 -153 64 -153 156c0 91 63 156 154 156c65 0 124 -36 181 -109z" />
    <glyph glyph-name="plusminus" unicode="&#xb1;"
d="M9 127h481v-62h-481v62zM9 413h209v196h63v-195h209v-63h-208v-183h-63v183h-210v62z" />
    <glyph glyph-name="lessequal" unicode="&#x2264;"
d="M490 104v-72h-480v72h480zM490 607v-67l-400 -173l400 -171v-67l-481 203v68z" />
    <glyph glyph-name="greaterequal" unicode="&#x2265;"
d="M490 104v-72h-480v72h480zM9 128v68l400 173l-400 171v67l481 -203v-68z" />
    <glyph glyph-name="mu" unicode="&#xb5;"
d="M45 -168v651h75v-272c0 -69 9 -96 41 -128c24 -23 52 -34 84 -34c78 0 131 69 131 170v264h75v-483h-74v82c-33 -69 -71 -95 -132 -95c-57 0 -92 20 -125 73v-228h-75z" />
    <glyph glyph-name="partialdiff" unicode="&#x2202;"
d="M245 375c-87 0 -156 -72 -156 -163c0 -90 69 -164 153 -164c86 0 153 73 153 166c0 94 -63 161 -150 161zM386 372c-5 38 -10 52 -26 85c-22 48 -50 85 -80 107c-52 39 -119 64 -186 70l16 41c49 -4 66 -7 98 -19c51 -19 122 -70 157 -112c32 -38 67 -107 83 -163
c10 -37 15 -77 15 -119c0 -167 -87 -273 -222 -273c-123 0 -220 98 -220 224c0 123 98 223 217 223c56 0 97 -18 148 -64z" />
    <glyph glyph-name="sumnation" horiz-adv-x="666"
d="M601 750v-225h-55l-8 173h-435l255 -427l-258 -469h450l4 174h56v-226h-587v55l260 468l-260 423v54h578z" />
    <glyph glyph-name="product" unicode="&#x220f;" horiz-adv-x="666"
d="M0 750h667v-51h-89v-897h89v-52h-248v51h92v897h-355v-896h91v-52h-247v51h90v897h-90v52z" />
    <glyph glyph-name="pi" unicode="&#x3c0;" horiz-adv-x="590"
d="M106 0v446h-67v62h513v-61h-67v-447h-75v446h-228v-446h-76z" />
    <glyph glyph-name="integral" unicode="&#x222b;"
d="M423 608h-56c-1 10 -1 14 -1 20c0 68 -8 86 -40 86c-29 0 -41 -21 -41 -67v-25l-1 -37v-658v-41c0 -89 -34 -136 -101 -136c-72 0 -103 46 -106 154h59v-9v-30c0 -52 15 -78 46 -78s42 20 42 81v37v649c0 85 1 108 11 134c14 39 46 62 88 62c69 0 92 -34 100 -142z" />
    <glyph glyph-name="Omega" unicode="&#x3a9;" horiz-adv-x="666"
d="M8 0v69h187c-122 70 -179 163 -179 293c0 182 137 321 317 321c180 -1 317 -139 317 -321c0 -129 -57 -223 -179 -293h187v-69h-274v65c63 35 95 62 126 105c39 54 58 114 58 184c0 147 -101 259 -234 259c-137 0 -236 -109 -236 -259c0 -127 60 -222 185 -289v-65h-275z
" />
    <glyph glyph-name="logicalnot" unicode="&#xac;"
d="M433 0v210h-423v57h480v-267h-57z" />
    <glyph glyph-name="radical" unicode="&#x221a;" horiz-adv-x="666"
d="M636 787v-51h-142l-286 -750l-108 319h-70v52h112l70 -226l238 656h186z" />
    <glyph glyph-name="approxequal" unicode="&#x2248;"
d="M455 341l38 -36c-47 -83 -85 -116 -133 -116c-24 0 -41 5 -113 38c-77 34 -86 38 -106 38c-35 0 -59 -23 -98 -90l-37 36c49 84 85 115 133 115c28 0 49 -8 125 -42c63 -28 79 -34 94 -34c34 0 63 26 97 91zM455 516l38 -35c-47 -84 -85 -117 -133 -117
c-24 0 -41 6 -113 39c-77 34 -86 37 -106 37c-35 0 -59 -22 -98 -90l-37 37c49 83 85 114 133 114c28 0 49 -7 125 -42c63 -28 79 -34 94 -34c34 0 63 27 97 91z" />
    <glyph glyph-name="Delta" unicode="&#x394;" horiz-adv-x="666"
d="M99 58h466l-235 541zM4 0l282 666h87l289 -666h-658z" />
    <glyph glyph-name="nbspace" unicode="&#xa0;" horiz-adv-x="280"
 />
    <glyph glyph-name="Agrave" unicode="&#xc0;" horiz-adv-x="560"
d="M172 249l-1 -3c-1 -6 -2 -6 -2 -7c0 -5 4 -7 14 -7h196h3v0c5 3 7 2 7 6c0 2 0 2 -1 4c0 1 0 1 -1 3l-103 261v1c-1 9 -4 8 -6 9c-2 0 -3 0 -4 -3l-2 -4l-1 -3zM313 634l229 -570c5 -13 7 -22 7 -29c0 -20 -18 -36 -39 -36c-16 0 -28 9 -36 30l-1 4l-46 113l-1 4
c-1 4 -1 4 -2 4c-1 4 -3 3 -5 4h-8h-3h-253h-6h-1c-10 0 -12 -2 -15 -10l-1 -3l-45 -117c-8 -22 -20 -30 -39 -30s-37 16 -37 34c0 3 0 6 1 9c1 1 2 5 4 11c0 4 1 3 1 4l223 582c10 23 20 33 35 33c18 0 27 -9 37 -33zM337 809l7 -3c14 -8 22 -19 22 -33
c0 -19 -16 -35 -34 -35c-7 0 -14 2 -21 6l-6 3l-81 43l-6 3c-15 8 -22 19 -22 33c0 19 15 35 33 35c6 0 14 -2 22 -6c1 -1 3 -1 6 -3z" />
    <glyph glyph-name="Atilde" unicode="&#xc3;" horiz-adv-x="560"
d="M172 249l-1 -3c-1 -6 -2 -6 -2 -7c0 -5 4 -7 14 -7h196h3v0c5 3 7 2 7 6c0 2 0 2 -1 4c0 1 0 1 -1 3l-103 261v1c-1 9 -4 8 -6 9c-2 0 -3 0 -4 -3l-2 -4l-1 -3zM313 634l229 -570c5 -13 7 -22 7 -29c0 -20 -18 -36 -39 -36c-16 0 -28 9 -36 30l-1 4l-46 113l-1 4
c-1 4 -1 4 -2 4c-1 4 -3 3 -5 4h-8h-3h-253h-6h-1c-10 0 -12 -2 -15 -10l-1 -3l-45 -117c-8 -22 -20 -30 -39 -30s-37 16 -37 34c0 3 0 6 1 9c1 1 2 5 4 11c0 4 1 3 1 4l223 582c10 23 20 33 35 33c18 0 27 -9 37 -33zM284 832l29 -15c9 -5 18 -7 26 -7c11 0 14 2 22 17
c7 13 16 19 29 19c20 0 35 -16 35 -36c0 -39 -37 -71 -82 -71c-19 0 -34 4 -59 17c-32 15 -40 18 -50 18c-9 0 -15 -3 -20 -11l-8 -13c-5 -8 -13 -12 -24 -12c-21 0 -34 13 -34 35c0 40 36 72 80 72c17 0 39 -5 56 -13z" />
    <glyph glyph-name="Otilde" unicode="&#xd5;" horiz-adv-x="555"
d="M108 420v-158v-5c0 -115 67 -190 169 -190c103 0 170 76 170 192v6v140v7c0 92 -24 141 -85 174c-25 14 -53 21 -82 21c-97 0 -172 -79 -172 -182v-5zM521 402v-141v-4c0 -153 -103 -263 -245 -263c-85 0 -172 50 -210 121c-21 38 -32 86 -32 138v5v168v5
c0 138 109 248 246 248c89 0 177 -52 212 -125c19 -39 29 -89 29 -144v-8zM284 840l29 -15c9 -5 18 -7 26 -7c11 0 14 2 22 17c7 13 16 19 29 19c20 0 35 -16 35 -36c0 -39 -37 -71 -82 -71c-19 0 -34 4 -59 17c-32 15 -40 18 -50 18c-9 0 -15 -3 -20 -11l-8 -13
c-5 -8 -13 -12 -24 -12c-21 0 -34 13 -34 35c0 40 36 72 80 72c17 0 39 -5 56 -13z" />
    <glyph glyph-name="divide" unicode="&#xf7;"
d="M9 372h481v-62h-481v62zM249 205c29 0 52 -23 52 -52s-23 -52 -52 -52c-28 0 -52 23 -52 52s24 52 52 52zM249 581c29 0 52 -23 52 -52s-23 -52 -52 -52c-28 0 -52 23 -52 52s24 52 52 52z" />
    <glyph glyph-name="lozenge" unicode="&#x25ca;" horiz-adv-x="666"
d="M332 590l-178 -256l178 -255l181 255zM332 681l253 -347l-253 -349l-251 349z" />
    <glyph glyph-name="ydieresis" unicode="&#xff;" horiz-adv-x="450"
d="M427 408l-179 -457c0 -3 -1 -3 -2 -7c-30 -80 -113 -154 -172 -154c-18 0 -34 17 -34 38c0 14 8 25 25 33l9 4c46 21 75 51 94 97l30 72l1 1c1 5 1 4 1 6s0 2 -1 4c-1 5 -2 4 -2 6c0 1 -1 1 -1 2l-167 345l-2 4l-7 14c-1 3 -1 6 -1 10c0 21 16 38 37 38
c17 0 29 -9 38 -29l140 -284v-1c1 -4 2 -3 4 -4c3 2 6 2 7 6l110 276c0 1 0 1 1 4c8 24 21 36 40 36c21 0 38 -16 38 -35c0 -4 -1 -8 -3 -13l-2 -9zM252 586c0 28 23 51 51 51c29 0 52 -23 52 -51s-23 -51 -52 -51c-28 0 -51 23 -51 51zM100 586c0 28 23 51 52 51
c28 0 51 -23 51 -51s-23 -51 -51 -51c-29 0 -52 23 -52 51z" />
    <glyph glyph-name="Ydieresis" unicode="&#x178;" horiz-adv-x="512"
d="M295 319l-3 -4c-3 -5 -5 -11 -5 -20v-1v-248c0 -34 -11 -47 -36 -47c-27 0 -38 14 -38 50l-1 245v5v1c0 11 0 14 -5 21c0 2 -1 1 -1 3l-184 279c-6 9 -11 23 -11 30c0 19 18 36 40 36c14 0 21 -5 32 -21l160 -243l2 -2l3 -5c2 -2 3 -1 4 -2c3 0 8 4 12 10l162 242
c10 16 21 23 36 23c21 0 38 -16 38 -37c0 -7 -3 -15 -9 -23zM285 789c0 28 23 51 51 51c29 0 52 -23 52 -51s-23 -51 -52 -51c-28 0 -51 23 -51 51zM133 789c0 28 23 51 52 51c28 0 51 -23 51 -51s-23 -51 -51 -51c-29 0 -52 23 -52 51z" />
    <glyph glyph-name="quotesinglebase" horiz-adv-x="260"
d="M85 -64l6 11c10 16 15 36 15 52c0 7 0 8 -3 24c-1 5 -1 9 -1 12c0 19 18 35 40 35c25 0 40 -25 40 -65c0 -67 -32 -127 -69 -127c-20 0 -35 15 -35 34c0 7 2 15 7 24z" />
    <glyph glyph-name="Acircumflex" unicode="&#xc2;" horiz-adv-x="560"
d="M172 249l-1 -3c-1 -6 -2 -6 -2 -7c0 -5 4 -7 14 -7h196h3v0c5 3 7 2 7 6c0 2 0 2 -1 4c0 1 0 1 -1 3l-103 261v1c-1 9 -4 8 -6 9c-2 0 -3 0 -4 -3l-2 -4l-1 -3zM313 634l229 -570c5 -13 7 -22 7 -29c0 -20 -18 -36 -39 -36c-16 0 -28 9 -36 30l-1 4l-46 113l-1 4
c-1 4 -1 4 -2 4c-1 4 -3 3 -5 4h-8h-3h-253h-6h-1c-10 0 -12 -2 -15 -10l-1 -3l-45 -117c-8 -22 -20 -30 -39 -30s-37 16 -37 34c0 3 0 6 1 9c1 1 2 5 4 11c0 4 1 3 1 4l223 582c10 23 20 33 35 33c18 0 27 -9 37 -33zM281 771l-80 -30c-5 -2 -10 -3 -14 -3
c-18 0 -35 18 -35 36c0 14 10 27 23 32l92 33c5 2 10 3 13 3c2 0 6 -1 13 -3l88 -30c19 -6 27 -17 27 -34c0 -19 -16 -36 -36 -36c-2 1 -5 0 -8 2z" />
    <glyph glyph-name="Ecircumflex" unicode="&#xca;" horiz-adv-x="587"
d="M141 675l358 -2h4c27 0 43 -14 43 -37c0 -24 -15 -36 -42 -36h-5h-334h-6c-11 0 -15 -3 -15 -11v0v-3v-198v-3c0 -9 3 -11 13 -11h4l267 -1h5c27 0 44 -13 44 -34c0 -23 -16 -39 -39 -39h-4l-278 1h-4c-6 0 -10 -3 -10 -7v-4v-2l-1 -201v-5c0 -4 4 -7 10 -7h5h333h7
c31 0 48 -13 48 -37c0 -22 -17 -38 -38 -38h-7h-379h-6c-36 0 -47 10 -47 46v1l3 570v5c0 44 11 53 65 53h6zM316 775l-80 -30c-5 -2 -10 -3 -14 -3c-18 0 -35 18 -35 36c0 14 10 27 23 32l92 33c5 2 10 3 13 3c2 0 6 -1 13 -3l88 -30c19 -6 27 -17 27 -34
c0 -19 -16 -36 -36 -36c-2 1 -5 0 -8 2z" />
    <glyph glyph-name="Aacute" unicode="&#xc1;" horiz-adv-x="560"
d="M172 249l-1 -3c-1 -6 -2 -6 -2 -7c0 -5 4 -7 14 -7h196h3v0c5 3 7 2 7 6c0 2 0 2 -1 4c0 1 0 1 -1 3l-103 261v1c-1 9 -4 8 -6 9c-2 0 -3 0 -4 -3l-2 -4l-1 -3zM313 634l229 -570c5 -13 7 -22 7 -29c0 -20 -18 -36 -39 -36c-16 0 -28 9 -36 30l-1 4l-46 113l-1 4
c-1 4 -1 4 -2 4c-1 4 -3 3 -5 4h-8h-3h-253h-6h-1c-10 0 -12 -2 -15 -10l-1 -3l-45 -117c-8 -22 -20 -30 -39 -30s-37 16 -37 34c0 3 0 6 1 9c1 1 2 5 4 11c0 4 1 3 1 4l223 582c10 23 20 33 35 33c18 0 27 -9 37 -33zM341 790l-79 -43l-6 -3c-9 -4 -16 -6 -23 -6
c-18 0 -33 16 -33 35c0 14 7 25 22 33l6 3l80 43c4 3 6 3 7 3c7 4 15 6 21 6c18 0 34 -16 34 -35c0 -14 -7 -25 -22 -33z" />
    <glyph glyph-name="Edieresis" unicode="&#xcb;" horiz-adv-x="587"
d="M141 675l358 -2h4c27 0 43 -14 43 -37c0 -24 -15 -36 -42 -36h-5h-334h-6c-11 0 -15 -3 -15 -11v0v-3v-198v-3c0 -9 3 -11 13 -11h4l267 -1h5c27 0 44 -13 44 -34c0 -23 -16 -39 -39 -39h-4l-278 1h-4c-6 0 -10 -3 -10 -7v-4v-2l-1 -201v-5c0 -4 4 -7 10 -7h5h333h7
c31 0 48 -13 48 -37c0 -22 -17 -38 -38 -38h-7h-379h-6c-36 0 -47 10 -47 46v1l3 570v5c0 44 11 53 65 53h6zM333 793c0 28 23 51 51 51c29 0 52 -23 52 -51s-23 -51 -52 -51c-28 0 -51 23 -51 51zM181 793c0 28 23 51 52 51c28 0 51 -23 51 -51s-23 -51 -51 -51
c-29 0 -52 23 -52 51z" />
    <glyph glyph-name="Egrave" unicode="&#xc8;" horiz-adv-x="587"
d="M141 675l358 -2h4c27 0 43 -14 43 -37c0 -24 -15 -36 -42 -36h-5h-334h-6c-11 0 -15 -3 -15 -11v0v-3v-198v-3c0 -9 3 -11 13 -11h4l267 -1h5c27 0 44 -13 44 -34c0 -23 -16 -39 -39 -39h-4l-278 1h-4c-6 0 -10 -3 -10 -7v-4v-2l-1 -201v-5c0 -4 4 -7 10 -7h5h333h7
c31 0 48 -13 48 -37c0 -22 -17 -38 -38 -38h-7h-379h-6c-36 0 -47 10 -47 46v1l3 570v5c0 44 11 53 65 53h6zM350 813l7 -3c14 -8 22 -19 22 -33c0 -19 -16 -35 -34 -35c-7 0 -14 2 -21 6l-6 3l-81 43l-6 3c-15 8 -22 19 -22 33c0 19 15 35 33 35c6 0 14 -2 22 -6
c1 -1 3 -1 6 -3z" />
    <glyph glyph-name="Iacute" unicode="&#xcd;" horiz-adv-x="210"
d="M143 617l-2 -574v-7c0 -22 -16 -38 -38 -38c-24 0 -36 14 -36 43v7v567v5c0 29 14 47 38 47c26 0 38 -15 38 -47v-3zM174 786l-79 -43l-6 -3c-9 -4 -16 -6 -23 -6c-18 0 -33 16 -33 35c0 14 7 25 22 33l6 3l80 43c4 3 6 3 7 3c7 4 15 6 21 6c18 0 34 -16 34 -35
c0 -14 -7 -25 -22 -33z" />
    <glyph glyph-name="Icircumflex" unicode="&#xce;" horiz-adv-x="210"
d="M143 617l-2 -574v-7c0 -22 -16 -38 -38 -38c-24 0 -36 14 -36 43v7v567v5c0 29 14 47 38 47c26 0 38 -15 38 -47v-3zM111 767l-80 -30c-5 -2 -10 -3 -14 -3c-18 0 -35 18 -35 36c0 14 10 27 23 32l92 33c5 2 10 3 13 3c2 0 6 -1 13 -3l88 -30c19 -6 27 -17 27 -34
c0 -19 -16 -36 -36 -36c-2 1 -5 0 -8 2z" />
    <glyph glyph-name="Idieresis" unicode="&#xcf;" horiz-adv-x="210"
d="M143 617l-2 -574v-7c0 -22 -16 -38 -38 -38c-24 0 -36 14 -36 43v7v567v5c0 29 14 47 38 47c26 0 38 -15 38 -47v-3zM129 785c0 28 23 51 51 51c29 0 52 -23 52 -51s-23 -51 -52 -51c-28 0 -51 23 -51 51zM-23 785c0 28 23 51 52 51c28 0 51 -23 51 -51s-23 -51 -51 -51
c-29 0 -52 23 -52 51z" />
    <glyph glyph-name="Igrave" unicode="&#xcc;" horiz-adv-x="210"
d="M143 617l-2 -574v-7c0 -22 -16 -38 -38 -38c-24 0 -36 14 -36 43v7v567v5c0 29 14 47 38 47c26 0 38 -15 38 -47v-3zM163 805l7 -3c14 -8 22 -19 22 -33c0 -19 -16 -35 -34 -35c-7 0 -14 2 -21 6l-6 3l-81 43l-6 3c-15 8 -22 19 -22 33c0 19 15 35 33 35c6 0 14 -2 22 -6
c1 -1 3 -1 6 -3z" />
    <glyph glyph-name="Oacute" unicode="&#xd3;" horiz-adv-x="555"
d="M108 420v-158v-5c0 -115 67 -190 169 -190c103 0 170 76 170 192v6v140v7c0 92 -24 141 -85 174c-25 14 -53 21 -82 21c-97 0 -172 -79 -172 -182v-5zM521 402v-141v-4c0 -153 -103 -263 -245 -263c-85 0 -172 50 -210 121c-21 38 -32 86 -32 138v5v168v5
c0 138 109 248 246 248c89 0 177 -52 212 -125c19 -39 29 -89 29 -144v-8zM346 798l-79 -43l-6 -3c-9 -4 -16 -6 -23 -6c-18 0 -33 16 -33 35c0 14 7 25 22 33l6 3l80 43c4 3 6 3 7 3c7 4 15 6 21 6c18 0 34 -16 34 -35c0 -14 -7 -25 -22 -33z" />
    <glyph glyph-name="Ocircumflex" unicode="&#xd4;" horiz-adv-x="555"
d="M108 420v-158v-5c0 -115 67 -190 169 -190c103 0 170 76 170 192v6v140v7c0 92 -24 141 -85 174c-25 14 -53 21 -82 21c-97 0 -172 -79 -172 -182v-5zM521 402v-141v-4c0 -153 -103 -263 -245 -263c-85 0 -172 50 -210 121c-21 38 -32 86 -32 138v5v168v5
c0 138 109 248 246 248c89 0 177 -52 212 -125c19 -39 29 -89 29 -144v-8zM282 779l-80 -30c-5 -2 -10 -3 -14 -3c-18 0 -35 18 -35 36c0 14 10 27 23 32l92 33c5 2 10 3 13 3c2 0 6 -1 13 -3l88 -30c19 -6 27 -17 27 -34c0 -19 -16 -36 -36 -36c-2 1 -5 0 -8 2z" />
    <glyph glyph-name="apple" unicode="&#xf8ff;" horiz-adv-x="782"
d="M677 456c-58 -44 -81 -83 -81 -139c0 -67 38 -123 100 -149c-51 -123 -113 -194 -169 -194c-13 0 -27 3 -41 9l-41 17c-5 1 -16 2 -32 2c-21 0 -46 -2 -52 -4l-43 -17c-13 -6 -26 -9 -38 -9c-36 0 -75 28 -110 81c-53 78 -84 172 -84 253c0 130 76 219 187 219
c24 0 44 -4 77 -17c21 -8 37 -13 47 -13c11 0 26 4 44 10c55 21 61 22 91 22c62 0 110 -23 145 -71zM534 691v-10c0 -88 -69 -163 -149 -163c2 96 58 161 149 173z" />
    <glyph glyph-name="Ograve" unicode="&#xd2;" horiz-adv-x="555"
d="M108 420v-158v-5c0 -115 67 -190 169 -190c103 0 170 76 170 192v6v140v7c0 92 -24 141 -85 174c-25 14 -53 21 -82 21c-97 0 -172 -79 -172 -182v-5zM521 402v-141v-4c0 -153 -103 -263 -245 -263c-85 0 -172 50 -210 121c-21 38 -32 86 -32 138v5v168v5
c0 138 109 248 246 248c89 0 177 -52 212 -125c19 -39 29 -89 29 -144v-8zM345 817l7 -3c14 -8 22 -19 22 -33c0 -19 -16 -35 -34 -35c-7 0 -14 2 -21 6l-6 3l-81 43l-6 3c-15 8 -22 19 -22 33c0 19 15 35 33 35c6 0 14 -2 22 -6c1 -1 3 -1 6 -3z" />
    <glyph glyph-name="Uacute" unicode="&#xda;" horiz-adv-x="610"
d="M66 252v373v6c0 29 14 47 37 47c22 0 38 -18 38 -43v-4v-374v-3c0 -78 22 -125 75 -158c26 -17 57 -25 89 -25c80 0 149 58 161 136c2 18 3 42 3 72v4l1 344v4c0 29 15 46 39 46c22 0 35 -15 35 -40v-6v-377v-6c0 -146 -101 -250 -240 -250c-138 0 -238 105 -238 250v4z
M367 797l-79 -43l-6 -3c-9 -4 -16 -6 -23 -6c-18 0 -33 16 -33 35c0 14 7 25 22 33l6 3l80 43c4 3 6 3 7 3c7 4 15 6 21 6c18 0 34 -16 34 -35c0 -14 -7 -25 -22 -33z" />
    <glyph glyph-name="Ucircumflex" unicode="&#xdb;" horiz-adv-x="610"
d="M66 252v373v6c0 29 14 47 37 47c22 0 38 -18 38 -43v-4v-374v-3c0 -78 22 -125 75 -158c26 -17 57 -25 89 -25c80 0 149 58 161 136c2 18 3 42 3 72v4l1 344v4c0 29 15 46 39 46c22 0 35 -15 35 -40v-6v-377v-6c0 -146 -101 -250 -240 -250c-138 0 -238 105 -238 250v4z
M307 778l-80 -30c-5 -2 -10 -3 -14 -3c-18 0 -35 18 -35 36c0 14 10 27 23 32l92 33c5 2 10 3 13 3c2 0 6 -1 13 -3l88 -30c19 -6 27 -17 27 -34c0 -19 -16 -36 -36 -36c-2 1 -5 0 -8 2z" />
    <glyph glyph-name="Ugrave" unicode="&#xd9;" horiz-adv-x="610"
d="M66 252v373v6c0 29 14 47 37 47c22 0 38 -18 38 -43v-4v-374v-3c0 -78 22 -125 75 -158c26 -17 57 -25 89 -25c80 0 149 58 161 136c2 18 3 42 3 72v4l1 344v4c0 29 15 46 39 46c22 0 35 -15 35 -40v-6v-377v-6c0 -146 -101 -250 -240 -250c-138 0 -238 105 -238 250v4z
M352 816l7 -3c14 -8 22 -19 22 -33c0 -19 -16 -35 -34 -35c-7 0 -14 2 -21 6l-6 3l-81 43l-6 3c-15 8 -22 19 -22 33c0 19 15 35 33 35c6 0 14 -2 22 -6c1 -1 3 -1 6 -3z" />
    </font>
</defs>
</svg>
